<svg width="48" height="41" viewBox="0 0 48 41" fill="none" xmlns="http://www.w3.org/2000/svg">
<path d="M3.44055 0.320679C1.99601 0.320679 0.808838 1.54492 0.808838 3.03466V18.5402C0.808838 20.0299 1.99601 21.2602 3.44055 21.2602H4.56696V22.0326C4.56696 23.3082 5.58873 24.3574 6.82565 24.3574C18.3546 24.3574 29.8835 24.3574 41.4124 24.3574C42.6493 24.3574 43.6711 23.3082 43.6711 22.0326V21.2602H44.7975C46.2421 21.2602 47.4292 20.0299 47.4292 18.5402V3.03466C47.4292 1.54492 46.2421 0.320679 44.7975 0.320679H3.44055ZM3.44055 1.87304H44.7975C45.4293 1.87304 45.9239 2.38306 45.9239 3.03466V18.5402C45.9239 19.1918 45.4293 19.7094 44.7975 19.7094C31.0119 19.7094 17.2262 19.7094 3.44055 19.7094C2.80873 19.7094 2.31414 19.1918 2.31414 18.5402V3.03466C2.31414 2.38306 2.80873 1.87304 3.44055 1.87304ZM4.56549 3.4239C4.15251 3.42553 3.81812 3.77039 3.81651 4.19628C3.81501 4.62456 4.15022 4.97309 4.56549 4.97476C4.98306 4.97646 5.32198 4.62689 5.32035 4.19628C5.31884 3.76802 4.98077 3.42222 4.56549 3.4239ZM7.57316 3.4239C7.16018 3.42553 6.82579 3.77039 6.82418 4.19628C6.82268 4.62456 7.15789 4.97309 7.57316 4.97476C7.99073 4.97646 8.32965 4.62689 8.32802 4.19628C8.32652 3.76802 7.98844 3.42222 7.57316 3.4239ZM43.6652 3.4239C43.2523 3.42553 42.9179 3.77039 42.9163 4.19628C42.9146 4.62456 43.25 4.97309 43.6652 4.97476C44.0828 4.97646 44.4217 4.62689 44.4201 4.19628C44.4184 3.76802 44.0805 3.42222 43.6652 3.4239ZM6.0708 6.52563C4.83389 6.52563 3.81799 7.57479 3.81798 8.85036C3.81798 10.126 4.83388 11.1736 6.0708 11.1736H42.1673C43.4042 11.1736 44.4201 10.1259 44.4201 8.85036C44.4201 7.57479 43.4042 6.52563 42.1673 6.52563H6.0708ZM6.0708 8.07799H42.1673C42.5915 8.07799 42.9163 8.41292 42.9163 8.85036C42.9163 9.2878 42.5915 9.62878 42.1673 9.62878H6.0708C5.64662 9.62878 5.32181 9.2878 5.32181 8.85036C5.32182 8.41295 5.64663 8.07799 6.0708 8.07799ZM19.6097 13.5044C18.3728 13.5044 17.3496 14.5521 17.3496 15.8277C17.3496 17.1033 18.3728 18.157 19.6097 18.157H28.6283C29.8652 18.157 30.8885 17.1033 30.8885 15.8277C30.8885 14.5521 29.8653 13.5044 28.6283 13.5044H19.6097ZM4.56696 15.0553C4.15398 15.0569 3.81959 15.4018 3.81798 15.8277C3.81647 16.2559 4.15169 16.6045 4.56696 16.6062H15.0968C15.512 16.6044 15.8474 16.2559 15.8457 15.8277C15.8442 15.4018 15.5097 15.057 15.0968 15.0553H4.56696ZM19.6097 15.0553H28.6283C29.0525 15.0553 29.3832 15.3902 29.3832 15.8277C29.3832 16.2651 29.0525 16.6062 28.6283 16.6062H19.6097C19.1856 16.6062 18.8549 16.2651 18.8549 15.8277C18.8549 15.3902 19.1856 15.0553 19.6097 15.0553ZM33.1413 15.0553C32.7283 15.0569 32.3939 15.4018 32.3923 15.8277C32.3907 16.2559 32.7261 16.6045 33.1413 16.6062H43.6711C44.0864 16.6044 44.4217 16.2559 44.4201 15.8277C44.4185 15.4018 44.0841 15.057 43.6711 15.0553H33.1413ZM6.0708 21.2602H12.8381V22.805H6.82565C6.40148 22.805 6.0708 22.47 6.0708 22.0326V21.2602ZM14.3419 21.2602H23.3664V22.805H14.3419V21.2602ZM24.8717 21.2602H33.8962V22.805H24.8717V21.2602ZM35.3956 21.2602H42.1673V22.0326C42.1673 22.47 41.8366 22.805 41.4124 22.805H35.3956V21.2602ZM11.3386 25.9082C10.9211 25.9065 10.5821 26.256 10.5838 26.6866V36.7672C10.5838 38.0611 9.58569 39.0904 8.33096 39.0904C7.07623 39.0904 6.0708 38.0611 6.0708 36.7672V35.2148C6.0723 34.7866 5.73709 34.438 5.32181 34.4363C4.90424 34.4347 4.56533 34.7842 4.56696 35.2148V36.7672C4.56696 38.8993 6.2635 40.6413 8.33096 40.6413C10.3984 40.6413 12.0876 38.8993 12.0876 36.7672V26.6866C12.0893 26.2584 11.7539 25.9099 11.3386 25.9082ZM15.8457 25.9082C15.4305 25.91 15.0951 26.2584 15.0968 26.6866V35.3526C15.0968 37.0071 16.4761 38.3181 18.1044 38.3181C19.7327 38.3181 21.1136 37.0071 21.1136 35.3526V34.2592C21.1152 33.8286 20.7763 33.479 20.3587 33.4807C19.9434 33.4824 19.6081 33.8309 19.6097 34.2592V35.3526C19.6097 36.1165 18.9678 36.7672 18.1044 36.7672C17.2411 36.7672 16.6006 36.1165 16.6006 35.3526V26.6866C16.6022 26.256 16.2633 25.9066 15.8457 25.9082ZM21.8625 25.9082C21.4473 25.91 21.1119 26.2584 21.1136 26.6866V31.0485C21.1151 31.4743 21.4496 31.8192 21.8625 31.8208C22.2778 31.8225 22.6158 31.4767 22.6174 31.0485V26.6866C22.6191 26.256 22.2801 25.9066 21.8625 25.9082ZM26.3755 25.9082C25.958 25.9065 25.619 26.256 25.6207 26.6866V31.0485C25.6223 31.4767 25.9603 31.8225 26.3755 31.8208C26.7885 31.8192 27.1229 31.4743 27.1245 31.0485V26.6866C27.1262 26.2584 26.7908 25.9099 26.3755 25.9082ZM32.3923 25.9082C31.9748 25.9065 31.6359 26.256 31.6375 26.6866V35.3526C31.6375 36.1165 30.997 36.7672 30.1336 36.7672C29.2703 36.7672 28.6283 36.1165 28.6283 35.3526V34.2592C28.63 33.8309 28.2946 33.4823 27.8794 33.4807C27.4618 33.479 27.1229 33.8286 27.1245 34.2592V35.3526C27.1245 37.0071 28.5054 38.3181 30.1336 38.3181C31.7619 38.3181 33.1413 37.0071 33.1413 35.3526V26.6866C33.143 26.2584 32.8076 25.9099 32.3923 25.9082ZM36.8994 25.9082C36.4842 25.91 36.1488 26.2584 36.1505 26.6866V36.7672C36.1505 38.8993 37.8397 40.6413 39.9071 40.6413C41.9746 40.6413 43.6711 38.8993 43.6711 36.7672V35.2148C43.6728 34.7842 43.3338 34.4347 42.9163 34.4363C42.501 34.4381 42.1657 34.7866 42.1673 35.2148V36.7672C42.1673 38.0611 41.1618 39.0904 39.9071 39.0904C38.6524 39.0904 37.6543 38.0611 37.6543 36.7672V26.6866C37.656 26.256 37.317 25.9066 36.8994 25.9082Z" fill="#212121"/>
</svg>
