<svg width="48" height="42" viewBox="0 0 48 42" fill="none" xmlns="http://www.w3.org/2000/svg">
<path d="M1 40.4246V26.626C1.00551 24.5367 1.749 22.5347 3.06807 21.0573C4.38715 19.58 6.17461 18.7472 8.04005 18.7411H39.7203C41.5857 18.7472 43.3732 19.58 44.6922 21.0573C46.0113 22.5347 46.7548 24.5367 46.7603 26.626V40.4246M37.9603 18.7411H6.28004V5.92808C6.28352 4.62227 6.74821 3.37106 7.57262 2.44771C8.39703 1.52436 9.51418 1.0039 10.6801 1H37.0802C38.2461 1.0039 39.3633 1.52436 40.1877 2.44771C41.0121 3.37106 41.4768 4.62227 41.4803 5.92808V18.7411H37.9603Z" stroke="#212121" stroke-width="2" stroke-linecap="round" stroke-linejoin="round"/>
<path d="M23.8802 16.7699C23.8775 15.7251 23.5058 14.7241 22.8463 13.9853C22.1867 13.2466 21.2929 12.8303 20.3601 12.8274H11.5601C10.6273 12.8303 9.73349 13.2466 9.07393 13.9853C8.41436 14.7241 8.04266 15.7251 8.04005 16.7699V18.7411H23.8802V16.7699ZM23.8802 16.7699C23.8828 15.7251 24.2545 14.7241 24.914 13.9853C25.5736 13.2466 26.4674 12.8303 27.4002 12.8274H36.2002C37.133 12.8303 38.0268 13.2466 38.6864 13.9853C39.346 14.7241 39.7177 15.7251 39.7203 16.7699V18.7411M1 40.4246V39.439C1.00203 38.6555 1.28083 37.9047 1.77549 37.3507C2.27015 36.7967 2.94047 36.4844 3.64002 36.4822H44.1203C44.8198 36.4844 45.4902 36.7967 45.9848 37.3507C46.4795 37.9047 46.7583 38.6555 46.7603 39.439V40.4246H1Z" stroke="#212121" stroke-width="2" stroke-linecap="round" stroke-linejoin="round"/>
</svg>
