<svg width="33" height="46" viewBox="0 0 33 46" fill="none" xmlns="http://www.w3.org/2000/svg">
<path d="M17.2162 21.9983H11.4943V17.7556C11.4943 17.5325 11.4077 17.3135 11.2548 17.1557C11.1028 16.997 10.8919 16.9071 10.6769 16.9071H6.58988C6.3749 16.9071 6.164 16.997 6.01197 17.1557C5.85911 17.3135 5.77247 17.5325 5.77247 17.7556V21.9983H4.13765C3.68644 21.9983 3.32024 22.3784 3.32024 22.8468C3.32024 23.3152 3.68644 23.6953 4.13765 23.6953H6.58988H10.6769H17.2162C17.6674 23.6953 18.0336 23.3152 18.0336 22.8468C18.0336 22.3784 17.6674 21.9983 17.2162 21.9983ZM7.40729 18.6042H9.85952V21.9983H7.40729V18.6042Z" fill="#212121"/>
<path d="M17.2162 30.4834H16.3988V26.2407C16.3988 26.0176 16.3122 25.7987 16.1593 25.6408C16.0073 25.4822 15.7964 25.3922 15.5814 25.3922H11.4943C11.2794 25.3922 11.0685 25.4822 10.9164 25.6408C10.7636 25.7987 10.6769 26.0176 10.6769 26.2407V30.4834H4.13765C3.68644 30.4834 3.32024 30.8635 3.32024 31.3319C3.32024 31.8003 3.68644 32.1804 4.13765 32.1804H11.4943H15.5814H17.2162C17.6674 32.1804 18.0336 31.8003 18.0336 31.3319C18.0336 30.8635 17.6674 30.4834 17.2162 30.4834ZM12.3117 27.0893H14.764V30.4834H12.3117V27.0893Z" fill="#212121"/>
<path d="M12.3116 33.8774H9.042C8.59079 33.8774 8.22459 34.2576 8.22459 34.726C8.22459 35.1944 8.59079 35.5745 9.042 35.5745H12.3116C12.7629 35.5745 13.1291 35.1944 13.1291 34.726C13.1291 34.2576 12.7629 33.8774 12.3116 33.8774Z" fill="#212121"/>
<path d="M5.01539 10.9673C5.4666 10.9673 5.8328 10.5871 5.8328 10.1187V5.87611C5.8328 5.40773 5.4666 5.02759 5.01539 5.02759C4.56418 5.02759 4.19798 5.40773 4.19798 5.87611V10.1187C4.19798 10.5871 4.56337 10.9673 5.01539 10.9673Z" fill="#212121"/>
<path d="M31.9387 18.9723C31.9501 18.9486 31.9697 18.9316 31.9787 18.9062C32.1389 18.4683 31.9272 17.9779 31.5054 17.8107L21.645 13.9117C21.5535 13.7641 21.4292 13.6419 21.2698 13.5757V4.17914C21.2666 2.30644 19.8042 0.788428 18.0002 0.785034H3.26964C1.46562 0.788428 0.00326964 2.30644 0 4.17914V38.2169C0.00245223 39.746 0.984979 41.0239 2.32471 41.4481V42.3272C2.32471 42.7956 2.69091 43.1757 3.14212 43.1757C3.59333 43.1757 3.95953 42.7956 3.95953 42.3272V41.611H17.8261V42.3272C17.8261 42.7956 18.1923 43.1757 18.6435 43.1757C19.0947 43.1757 19.4609 42.7956 19.4609 42.3272V41.2351C19.7666 41.0748 20.0503 40.8771 20.2922 40.6293C20.3494 40.7337 20.4001 40.8414 20.463 40.9415C20.947 41.7018 21.605 42.3509 22.4101 42.7175L28.6388 45.5219C29.0181 45.6924 29.4063 45.7849 29.7905 45.7849C30.4117 45.7909 31.024 45.5202 31.4278 45.0348C31.8365 44.552 32.0327 43.9046 32.031 43.2105V19.3457C32.0318 19.2099 31.9934 19.0861 31.9387 18.9723ZM2.11546 2.98102C2.41545 2.67131 2.82006 2.48209 3.26964 2.48209H18.0002C18.4489 2.48209 18.8536 2.67131 19.1544 2.98102C19.4527 3.29328 19.6342 3.7133 19.6342 4.17914V13.5129H1.63482V4.17914C1.63482 3.7133 1.81629 3.29328 2.11546 2.98102ZM19.1536 39.415C18.8536 39.7256 18.4489 39.914 17.9994 39.914H3.26964C2.82088 39.914 2.41626 39.7248 2.11546 39.415C1.81629 39.1036 1.63482 38.6836 1.63482 38.2169V15.21H19.635V38.2169C19.6342 38.6836 19.4527 39.1036 19.1536 39.415ZM30.397 43.2114C30.3962 43.5873 30.2957 43.8028 30.2008 43.9156C30.1011 44.0251 30.0014 44.0828 29.7913 44.0887C29.663 44.0887 29.4938 44.0573 29.2903 43.9657L23.0616 41.1613C22.6292 40.9704 22.1624 40.541 21.8306 40.0116C21.4938 39.4846 21.3001 38.8686 21.3033 38.3815V15.5927L30.4256 19.1998C30.4166 19.249 30.397 19.2939 30.397 19.3465V43.2114Z" fill="#212121"/>
</svg>
