<svg width="47" height="41" viewBox="0 0 47 41" fill="none" xmlns="http://www.w3.org/2000/svg">
<path d="M11.4612 7.56012V9.70795C11.0261 9.97105 10.6318 10.2841 10.2923 10.6327C9.33528 11.6152 8.74598 12.875 8.74597 14.1282C8.74598 15.3815 9.47412 16.3325 10.5282 16.8071C11.5823 17.2817 12.8604 17.3773 14.2053 17.3773C15.5502 17.3773 16.8268 17.2818 17.8809 16.8071C18.935 16.3325 19.6586 15.3815 19.6586 14.1282C19.6586 12.875 19.0678 11.6152 18.1107 10.6327C17.7637 10.2764 17.3602 9.95676 16.9145 9.69024V7.56012C16.9145 7.41633 16.8778 7.2788 16.8635 7.15236C16.9144 5.31675 15.8243 3.54981 14.2388 2.22665C12.6534 0.903492 10.5422 0 8.34266 0C4.04816 0 0.548584 2.91555 0.548584 6.49954V38.367C0.548584 39.4368 1.60148 40.3207 2.88331 40.3206C4.16512 40.3206 5.22564 39.4368 5.22564 38.367V7.15236C5.22564 5.70797 6.61195 4.55109 8.34266 4.55109C10.0734 4.55109 11.4612 5.708 11.5114 7.15236C11.4969 7.27876 11.4612 7.41621 11.4612 7.56012H11.4612ZM8.34264 1.30063C10.0165 1.30063 11.7975 2.02841 13.1399 3.14879C14.2748 4.09588 15.0675 5.30444 15.2874 6.49954H12.9482C12.5725 4.66123 10.6485 3.24908 8.34264 3.24908C5.76965 3.24908 3.6656 5.00504 3.66559 7.15236V38.367C3.66559 38.7339 3.32284 39.0199 2.8833 39.0199C2.44376 39.0199 2.10708 38.7338 2.10708 38.367V6.49954C2.10708 3.61847 4.89043 1.30063 8.34264 1.30063ZM30.938 6.49954C30.5076 6.50098 30.1601 6.79318 30.1618 7.15236C30.1633 7.50956 30.51 7.79876 30.938 7.80017C31.3684 7.8016 31.7186 7.51153 31.7203 7.15236C31.7219 6.79122 31.3708 6.49813 30.938 6.49954ZM13.0197 7.80017H15.3544V9.05507C14.9865 8.97048 14.6032 8.92438 14.2053 8.92438C13.7952 8.92438 13.3984 8.97459 13.0197 9.06408V7.80017ZM34.0565 9.10212C32.7747 9.10212 31.7203 9.98583 31.7203 11.0556C31.7203 12.1254 32.7747 13.0041 34.0565 13.0041C35.3384 13.0041 36.3974 12.1254 36.3974 11.0556C36.3973 9.98583 35.3384 9.10212 34.0565 9.10212ZM14.2053 10.225C15.2075 10.225 16.1671 10.6984 16.9023 11.4532C17.3596 11.9228 17.6928 12.496 17.8931 13.0778C15.3806 13.8766 13.0183 13.8849 10.5084 13.0836C10.7084 12.5005 11.0424 11.9258 11.5008 11.4552C12.2359 10.7004 13.2032 10.227 14.2053 10.227V10.225ZM34.0565 10.4029C34.4961 10.4029 34.8388 10.6889 34.8388 11.0558C34.8388 11.4227 34.4961 11.7036 34.0565 11.7036C33.6169 11.7036 33.2788 11.4227 33.2788 11.0558C33.2788 10.6889 33.617 10.4029 34.0565 10.4029ZM29.3795 13.0043C27.2369 13.0043 25.4847 14.4665 25.4847 16.2547C25.4847 18.0428 27.2369 19.5101 29.3795 19.5101C31.5221 19.5101 33.2788 18.0428 33.2788 16.2547C33.2788 14.4665 31.5221 13.0043 29.3795 13.0043ZM29.3795 14.3062C30.6798 14.3062 31.7203 15.1694 31.7203 16.2547C31.7203 17.3398 30.6798 18.2082 29.3795 18.2082C28.0792 18.2082 27.0433 17.3398 27.0432 16.2547C27.0432 15.1694 28.0791 14.3062 29.3795 14.3062ZM10.3349 14.4117C12.9144 15.1567 15.4925 15.1537 18.0696 14.4136C18 15.0908 17.6976 15.4116 17.1382 15.6635C16.5001 15.9508 15.4426 16.0763 14.2053 16.0763C12.968 16.0763 11.903 15.9507 11.2648 15.6635C10.7048 15.4113 10.4041 15.0901 10.3349 14.4111V14.4117ZM18.5536 18.2273C18.4836 18.2279 18.4139 18.2371 18.3466 18.2525C17.9329 18.3471 17.6886 18.7032 17.8002 19.0489L18.2021 20.3064C18.3155 20.6524 18.7431 20.8564 19.1579 20.7624C19.5741 20.67 19.8216 20.3133 19.7103 19.9661L19.3009 18.7135C19.2116 18.4296 18.9054 18.2308 18.5536 18.2283V18.2273ZM9.60893 18.2332C9.58966 18.233 9.57036 18.2335 9.55111 18.2345C9.21819 18.2521 8.93608 18.4456 8.84947 18.7146L8.44615 19.9683C8.33493 20.3155 8.58238 20.6722 8.99863 20.7647C9.4129 20.8579 9.83947 20.6541 9.95291 20.3087L10.3562 19.0512C10.4684 18.7035 10.2208 18.3459 9.80375 18.2535C9.74009 18.2379 9.67465 18.2338 9.60894 18.2338L9.60893 18.2332ZM12.519 18.8593C12.0862 18.8579 11.735 19.1511 11.7367 19.5123V20.8129C11.7382 21.1721 12.0886 21.4621 12.519 21.4607C12.947 21.4593 13.2935 21.1701 13.2952 20.8129V19.5123C13.2967 19.1531 12.9493 18.8607 12.519 18.8593ZM15.6375 18.8593C15.2048 18.8579 14.8535 19.1511 14.8552 19.5123V20.8129C14.8568 21.1721 15.2071 21.4621 15.6375 21.4607C16.0655 21.4593 16.4121 21.1701 16.4137 20.8129V19.5123C16.4154 19.1531 16.0679 18.8607 15.6375 18.8593ZM35.8388 19.1464C33.9118 19.1464 32.3038 20.1341 31.3961 21.4048C30.714 21.1495 29.9568 21.0047 29.1603 21.0047C26.5631 21.0047 24.3895 22.5817 23.9962 24.6616C19.2224 24.5555 14.5562 24.2604 9.97117 23.8144V23.813C9.59383 23.7765 9.26251 23.7775 8.94078 23.8377C8.61905 23.8969 8.24615 24.038 8.03825 24.3572C7.83034 24.6764 7.90755 25.0445 8.05501 25.2971C8.20234 25.5497 8.41348 25.7558 8.68816 25.9652L8.89515 26.1227C9.57951 26.6445 9.99973 27.3164 10.1036 28.0292L11.207 35.5995C11.3464 36.5557 12.1243 37.3172 13.1552 37.6915L13.8599 39.8343C13.9465 40.1042 14.2373 40.2917 14.5721 40.2941H16.1322C16.4692 40.2939 16.7634 40.1057 16.8506 39.8343L17.4715 37.9468C23.8533 37.9468 30.2348 37.9468 36.6165 37.9468L37.2375 39.8343C37.3241 40.1042 37.6149 40.2917 37.9498 40.2941H39.5098C39.8468 40.2939 40.141 40.1057 40.2282 39.8343L40.9344 37.6889C41.9639 37.3138 42.742 36.5538 42.881 35.5995L43.9845 28.0292C44.0883 27.3164 44.5085 26.6445 45.1929 26.1227L45.855 25.6146C46.0595 25.4585 46.2435 25.2554 46.2979 24.9706C46.3523 24.6858 46.2002 24.3459 45.9524 24.1552C45.4566 23.7738 44.8671 23.7625 44.1169 23.8427C43.1603 23.9449 42.2107 24.034 41.2647 24.1171C41.5335 22.4743 40.9957 21.2094 40.0045 20.4056C38.8374 19.4592 37.2183 19.1468 35.8388 19.1468L35.8388 19.1464ZM35.8388 20.4484C36.9194 20.4484 38.1599 20.728 38.9162 21.3413C39.6075 21.9018 40.028 22.7483 39.659 24.2525C38.2084 24.3643 36.7698 24.4546 35.3441 24.5244L26.5775 24.7111C26.2387 24.7091 25.9061 24.6955 25.5684 24.6914C25.9194 23.3104 27.3788 22.3047 29.1603 22.3047C30.4265 22.3047 31.5131 22.7826 32.1693 23.5241C32.4243 23.8155 32.9146 23.8785 33.2621 23.6638C33.6093 23.4495 33.6818 23.0406 33.4234 22.7518C33.2138 22.5149 32.9715 22.3009 32.7081 22.1066C33.3679 21.1744 34.5597 20.4477 35.8388 20.4477L35.8388 20.4484ZM26.5669 26.0117C26.5767 26.0119 26.5861 26.0119 26.5957 26.0117L28.2927 25.9762L28.7022 27.945C23.0969 27.9995 17.1081 27.6049 11.3044 26.77C11.0069 26.167 10.5453 25.6169 9.91329 25.1353C15.3061 25.6344 20.8505 25.9747 26.5668 26.0117H26.5669ZM42.7836 26.7713C40.137 27.1668 37.2473 27.4608 34.5664 27.6566L34.9439 25.8339L35.3792 25.8242C35.389 25.8243 35.3983 25.8243 35.408 25.8242C38.2766 25.6841 41.1934 25.4567 44.151 25.1516C43.5424 25.6165 43.081 26.167 42.7836 26.7704L42.7836 26.7713ZM29.868 25.9584H33.3366L32.2149 31.3834C32.1603 31.6482 31.897 31.8233 31.5772 31.8304C31.2838 31.8148 31.049 31.6474 31.008 31.4024C31.0065 31.3946 31.0043 31.3848 31.0019 31.3778L29.868 25.9584ZM33.7506 31.6044L34.3046 28.9281C36.9178 28.7446 39.7464 28.4652 42.4061 28.0885L41.3331 35.4454C41.2376 36.1005 40.4838 36.6457 39.5098 36.6457C31.1977 36.6457 22.8857 36.6457 14.5736 36.6457C13.5996 36.6457 12.8503 36.1005 12.7549 35.4454L11.6819 28.0824C17.4616 28.8807 23.3936 29.2519 28.9609 29.1849L29.4602 31.5792C29.6055 32.4467 30.4871 33.1109 31.5506 33.1402C32.6414 33.1402 33.5679 32.4886 33.7506 31.6033V31.6044ZM14.7822 37.9463C15.1642 37.9463 15.5462 37.9463 15.9282 37.9463L15.5675 39.0514H15.1429L14.7822 37.9463ZM38.1598 37.9463C38.5418 37.9463 38.9238 37.9463 39.3059 37.9463L38.9452 39.0514H38.5205L38.1598 37.9463Z" fill="#212121"/>
</svg>
