<svg width="33" height="32" viewBox="0 0 33 32" fill="none" xmlns="http://www.w3.org/2000/svg">
<path d="M15.9764 31.7851C16.8608 31.7851 17.5778 30.9073 17.5778 29.8244C17.5778 28.7415 16.8608 27.8636 15.9764 27.8636C15.0919 27.8636 14.375 28.7415 14.375 29.8244C14.375 30.9073 15.0919 31.7851 15.9764 31.7851Z" fill="#212121"/>
<path d="M15.9765 20.0208C13.9039 20.0207 11.912 21.0047 10.4197 22.7658C10.1139 23.1272 9.93784 23.6226 9.93033 24.1429C9.92283 24.6632 10.0844 25.1658 10.3796 25.5402C10.6748 25.9147 11.0794 26.1302 11.5043 26.1394C11.9293 26.1485 12.3398 25.9507 12.6456 25.5893C13.555 24.5697 14.7434 24.0041 15.9765 24.0041C17.2096 24.0041 18.398 24.5697 19.3075 25.5893C19.6133 25.9507 20.0238 26.1485 20.4487 26.1394C20.8737 26.1302 21.2783 25.9147 21.5734 25.5402C21.8686 25.1658 22.0302 24.6632 22.0227 24.1429C22.0152 23.6226 21.8392 23.1272 21.5334 22.7658C20.0411 21.0047 18.0492 20.0207 15.9765 20.0208Z" fill="#212121"/>
<path d="M15.9761 10.2168C14.042 10.2184 12.1279 10.6966 10.3478 11.6229C8.56777 12.5493 6.95822 13.9048 5.61505 15.6088C5.46889 15.7981 5.35461 16.0207 5.27873 16.2641C5.20284 16.5074 5.16685 16.7667 5.1728 17.027C5.17875 17.2874 5.22652 17.5438 5.31339 17.7815C5.40026 18.0193 5.52453 18.2337 5.6791 18.4127C5.99127 18.7741 6.40791 18.9689 6.83737 18.9542C7.05002 18.9469 7.25941 18.8884 7.4536 18.782C7.64778 18.6757 7.82295 18.5235 7.96911 18.3343C9.01481 17.0059 10.2685 15.9493 11.6553 15.2276C13.042 14.506 14.5334 14.134 16.0402 14.134C17.547 14.134 19.0384 14.506 20.4251 15.2276C21.8119 15.9493 23.0656 17.0059 24.1113 18.3343C24.2596 18.5195 24.4365 18.6669 24.6316 18.7679C24.8268 18.8689 25.0364 18.9214 25.2483 18.9225C25.5612 18.921 25.867 18.8073 26.1277 18.5955C26.3885 18.3836 26.5928 18.0828 26.7155 17.7303C26.8381 17.3778 26.8737 16.989 26.8179 16.6119C26.7621 16.2349 26.6172 15.8862 26.4013 15.6088C25.0506 13.8953 23.4307 12.5342 21.639 11.6076C19.8474 10.6809 17.9211 10.2078 15.9761 10.2168Z" fill="#212121"/>
<path d="M31.542 8.11892C27.363 3.18289 21.7829 0.424561 15.9764 0.424561C10.1698 0.424561 4.58968 3.18289 0.41069 8.11892C0.140433 8.48686 -0.00620116 8.96631 0.000201151 9.4611C0.00660347 9.95588 0.165569 10.4294 0.44521 10.7867C0.724851 11.144 1.10448 11.3586 1.50796 11.3874C1.91143 11.4163 2.3089 11.2573 2.62063 10.9424C6.20393 6.70154 10.9927 4.33099 15.9764 4.33099C20.96 4.33099 25.7488 6.70154 29.3321 10.9424C29.6289 11.2927 30.0247 11.4894 30.437 11.4914C30.6528 11.4904 30.8661 11.436 31.0642 11.3316C31.2624 11.2271 31.4412 11.0747 31.5901 10.8836C31.882 10.5085 32.0409 10.0071 32.0319 9.4891C32.0229 8.97107 31.8467 8.47846 31.542 8.11892Z" fill="#212121"/>
</svg>
