<svg width="46" height="34" viewBox="0 0 46 34" fill="none" xmlns="http://www.w3.org/2000/svg">
<path d="M45.0506 31.8698C42.1457 31.8698 39.2312 31.8698 36.3263 31.8698C30.3271 31.8698 24.3184 31.8698 18.3193 31.8698C13.3042 31.8698 8.29855 31.8698 3.28346 31.8698C2.42238 31.8698 1.5613 31.8698 0.709682 31.8698C0.946243 32.0836 1.1828 32.2974 1.41936 32.5112C1.41936 28.5689 1.41936 24.6266 1.41936 20.6843C1.41936 17.5971 1.41936 14.51 1.41936 11.4229C1.1828 11.6367 0.946243 11.8504 0.709682 12.0642C3.61465 12.0642 6.52908 12.0642 9.43404 12.0642C15.4332 12.0642 21.4419 12.0642 27.441 12.0642C32.4561 12.0642 37.4618 12.0642 42.4769 12.0642C43.3379 12.0642 44.199 12.0642 45.0506 12.0642C44.8141 11.8504 44.5775 11.6367 44.341 11.4229C44.341 15.3652 44.341 19.3075 44.341 23.2498C44.341 26.3369 44.341 29.424 44.341 32.5112C44.341 33.3407 45.7603 33.3407 45.7603 32.5112C45.7603 28.5689 45.7603 24.6266 45.7603 20.6843C45.7603 17.5971 45.7603 14.51 45.7603 11.4229C45.7603 11.0722 45.4386 10.7815 45.0506 10.7815C42.1457 10.7815 39.2312 10.7815 36.3263 10.7815C30.3271 10.7815 24.3184 10.7815 18.3193 10.7815C13.3042 10.7815 8.29855 10.7815 3.28346 10.7815C2.42238 10.7815 1.5613 10.7815 0.709682 10.7815C0.321723 10.7815 0 11.0722 0 11.4229C0 15.3652 0 19.3075 0 23.2498C0 26.3369 0 29.424 0 32.5112C0 32.8618 0.321723 33.1525 0.709682 33.1525C3.61465 33.1525 6.52908 33.1525 9.43404 33.1525C15.4332 33.1525 21.4419 33.1525 27.441 33.1525C32.4561 33.1525 37.4618 33.1525 42.4769 33.1525C43.3379 33.1525 44.199 33.1525 45.0506 33.1525C45.9685 33.1525 45.9685 31.8698 45.0506 31.8698Z" fill="#212121"/>
<path d="M45.0506 31.8698C42.1457 31.8698 39.2312 31.8698 36.3263 31.8698C30.3271 31.8698 24.3184 31.8698 18.3193 31.8698C13.3042 31.8698 8.29855 31.8698 3.28346 31.8698C2.42238 31.8698 1.5613 31.8698 0.709682 31.8698C0.946243 32.0836 1.1828 32.2974 1.41936 32.5112C1.41936 28.2525 1.41936 23.9852 1.41936 19.7265C1.41936 19.1792 1.41936 18.6405 1.41936 18.0932C1.1828 18.3069 0.946243 18.5207 0.709682 18.7345C3.61465 18.7345 6.52908 18.7345 9.43404 18.7345C15.4332 18.7345 21.4419 18.7345 27.441 18.7345C32.4561 18.7345 37.4618 18.7345 42.4769 18.7345C43.3379 18.7345 44.199 18.7345 45.0506 18.7345C44.8141 18.5207 44.5775 18.3069 44.341 18.0932C44.341 22.3519 44.341 26.6191 44.341 30.8778C44.341 31.4251 44.341 31.9639 44.341 32.5112C44.341 33.3407 45.7603 33.3407 45.7603 32.5112C45.7603 28.2525 45.7603 23.9852 45.7603 19.7265C45.7603 19.1792 45.7603 18.6405 45.7603 18.0932C45.7603 17.7425 45.4386 17.4518 45.0506 17.4518C42.1457 17.4518 39.2312 17.4518 36.3263 17.4518C30.3271 17.4518 24.3184 17.4518 18.3193 17.4518C13.3042 17.4518 8.29855 17.4518 3.28346 17.4518C2.42238 17.4518 1.5613 17.4518 0.709682 17.4518C0.321723 17.4518 0 17.7425 0 18.0932C0 22.3519 0 26.6191 0 30.8778C0 31.4251 0 31.9639 0 32.5112C0 32.8618 0.321723 33.1526 0.709682 33.1526C3.61465 33.1526 6.52908 33.1526 9.43404 33.1526C15.4332 33.1526 21.4419 33.1526 27.441 33.1526C32.4561 33.1526 37.4618 33.1526 42.4769 33.1526C43.3379 33.1526 44.199 33.1526 45.0506 33.1526C45.9685 33.1526 45.9685 31.8698 45.0506 31.8698Z" fill="#212121"/>
<path d="M14.1935 11.4229C14.1935 15.3652 14.1935 19.3075 14.1935 23.2498C14.1935 26.3369 14.1935 29.4241 14.1935 32.5112C14.1935 33.3407 15.6128 33.3407 15.6128 32.5112C15.6128 28.5689 15.6128 24.6266 15.6128 20.6843C15.6128 17.5972 15.6128 14.51 15.6128 11.4229C15.6128 10.5934 14.1935 10.5934 14.1935 11.4229Z" fill="#212121"/>
<path d="M45.0506 31.8698C41.2467 31.8698 37.4428 31.8698 33.6295 31.8698C28.1034 31.8698 22.5679 31.8698 17.0418 31.8698C16.3227 31.8698 15.613 31.8698 14.8938 31.8698C15.1304 32.0836 15.367 32.2974 15.6035 32.5112C15.6035 28.2525 15.6035 23.9852 15.6035 19.7265C15.6035 19.1792 15.6035 18.6405 15.6035 18.0932C15.367 18.3069 15.1304 18.5207 14.8938 18.7345C18.6977 18.7345 22.5016 18.7345 26.315 18.7345C31.8411 18.7345 37.3766 18.7345 42.9026 18.7345C43.6218 18.7345 44.3315 18.7345 45.0506 18.7345C44.8141 18.5207 44.5775 18.3069 44.3409 18.0932C44.3409 22.3519 44.3409 26.6191 44.3409 30.8778C44.3409 31.4251 44.3409 31.9639 44.3409 32.5112C44.3409 33.3407 45.7603 33.3407 45.7603 32.5112C45.7603 28.2525 45.7603 23.9852 45.7603 19.7265C45.7603 19.1792 45.7603 18.6405 45.7603 18.0932C45.7603 17.7425 45.4386 17.4518 45.0506 17.4518C41.2467 17.4518 37.4428 17.4518 33.6295 17.4518C28.1034 17.4518 22.5679 17.4518 17.0418 17.4518C16.3227 17.4518 15.613 17.4518 14.8938 17.4518C14.5059 17.4518 14.1842 17.7425 14.1842 18.0932C14.1842 22.3519 14.1842 26.6191 14.1842 30.8778C14.1842 31.4251 14.1842 31.9639 14.1842 32.5112C14.1842 32.8618 14.5059 33.1526 14.8938 33.1526C18.6977 33.1526 22.5016 33.1526 26.315 33.1526C31.8411 33.1526 37.3766 33.1526 42.9026 33.1526C43.6218 33.1526 44.3315 33.1526 45.0506 33.1526C45.9685 33.1526 45.9685 31.8698 45.0506 31.8698Z" fill="#212121"/>
<path d="M29.2676 18.0932C29.2676 22.3519 29.2676 26.6192 29.2676 30.8779C29.2676 31.4252 29.2676 31.9639 29.2676 32.5112C29.2676 33.3407 30.6869 33.3407 30.6869 32.5112C30.6869 28.2525 30.6869 23.9853 30.6869 19.7266C30.6869 19.1793 30.6869 18.6405 30.6869 18.0932C30.6869 17.2637 29.2676 17.2637 29.2676 18.0932Z" fill="#212121"/>
<path d="M27.9233 15.4678C29.2954 15.4678 30.6674 15.4678 32.0395 15.4678C32.9573 15.4678 32.9573 14.1851 32.0395 14.1851C30.6674 14.1851 29.2954 14.1851 27.9233 14.1851C27.0055 14.1851 27.0055 15.4678 27.9233 15.4678Z" fill="#212121"/>
<path d="M45.0506 17.4518C41.2467 17.4518 37.4428 17.4518 33.6295 17.4518C28.1034 17.4518 22.5679 17.4518 17.0418 17.4518C16.3227 17.4518 15.613 17.4518 14.8938 17.4518C15.1304 17.6655 15.367 17.8793 15.6035 18.0931C15.6035 15.8697 15.6035 13.6463 15.6035 11.4229C15.367 11.6367 15.1304 11.8504 14.8938 12.0642C18.6977 12.0642 22.5016 12.0642 26.315 12.0642C31.8411 12.0642 37.3766 12.0642 42.9026 12.0642C43.6218 12.0642 44.3315 12.0642 45.0506 12.0642C44.8141 11.8504 44.5775 11.6367 44.3409 11.4229C44.3409 13.6463 44.3409 15.8697 44.3409 18.0931C44.3409 18.9226 45.7603 18.9226 45.7603 18.0931C45.7603 15.8697 45.7603 13.6463 45.7603 11.4229C45.7603 11.0722 45.4386 10.7815 45.0506 10.7815C41.2467 10.7815 37.4428 10.7815 33.6295 10.7815C28.1034 10.7815 22.5679 10.7815 17.0418 10.7815C16.3227 10.7815 15.613 10.7815 14.8938 10.7815C14.5059 10.7815 14.1842 11.0722 14.1842 11.4229C14.1842 13.6463 14.1842 15.8697 14.1842 18.0931C14.1842 18.4437 14.5059 18.7345 14.8938 18.7345C18.6977 18.7345 22.5016 18.7345 26.315 18.7345C31.8411 18.7345 37.3766 18.7345 42.9026 18.7345C43.6218 18.7345 44.3315 18.7345 45.0506 18.7345C45.9685 18.7345 45.9685 17.4518 45.0506 17.4518Z" fill="#212121"/>
<path d="M12.216 29.5182C9.27323 29.5182 6.33988 29.5182 3.39706 29.5182C3.63362 29.732 3.87019 29.9458 4.10675 30.1596C4.10675 26.9185 4.10675 23.686 4.10675 20.445C3.87019 20.6588 3.63362 20.8725 3.39706 21.0863C6.33988 21.0863 9.27323 21.0863 12.216 21.0863C11.9795 20.8725 11.7429 20.6588 11.5064 20.445C11.5064 23.686 11.5064 26.9185 11.5064 30.1596C11.5064 30.9891 12.9257 30.9891 12.9257 30.1596C12.9257 26.9185 12.9257 23.686 12.9257 20.445C12.9257 20.0943 12.604 19.8036 12.216 19.8036C9.27323 19.8036 6.33988 19.8036 3.39706 19.8036C3.0091 19.8036 2.68738 20.0943 2.68738 20.445C2.68738 23.686 2.68738 26.9185 2.68738 30.1596C2.68738 30.5102 3.0091 30.801 3.39706 30.801C6.33988 30.801 9.27323 30.801 12.216 30.801C13.1244 30.801 13.1244 29.5182 12.216 29.5182Z" fill="#212121"/>
<path d="M14.9033 31.8698C10.3424 31.8698 5.79101 31.8698 1.23012 31.8698C1.05979 31.8698 0.880006 31.8698 0.709682 31.8698C0.946243 32.0836 1.1828 32.2974 1.41936 32.5112C1.41936 28.2525 1.41936 23.9852 1.41936 19.7265C1.41936 19.1792 1.41936 18.6405 1.41936 18.0932C1.1828 18.3069 0.946243 18.5207 0.709682 18.7345C5.27057 18.7345 9.822 18.7345 14.3829 18.7345C14.5532 18.7345 14.733 18.7345 14.9033 18.7345C14.6668 18.5207 14.4302 18.3069 14.1936 18.0932C14.1936 22.3519 14.1936 26.6191 14.1936 30.8778C14.1936 31.4251 14.1936 31.9639 14.1936 32.5112C14.1936 33.3407 15.613 33.3407 15.613 32.5112C15.613 28.2525 15.613 23.9852 15.613 19.7265C15.613 19.1792 15.613 18.6405 15.613 18.0932C15.613 17.7425 15.2913 17.4518 14.9033 17.4518C10.3424 17.4518 5.79101 17.4518 1.23012 17.4518C1.05979 17.4518 0.880006 17.4518 0.709682 17.4518C0.321723 17.4518 0 17.7425 0 18.0932C0 22.3519 0 26.6191 0 30.8778C0 31.4251 0 31.9639 0 32.5112C0 32.8618 0.321723 33.1526 0.709682 33.1526C5.27057 33.1526 9.822 33.1526 14.3829 33.1526C14.5532 33.1526 14.733 33.1526 14.9033 33.1526C15.8212 33.1526 15.8212 31.8698 14.9033 31.8698Z" fill="#212121"/>
<path d="M27.3562 27.1664C27.3562 25.9264 27.3562 24.6865 27.3562 23.4465C27.3562 22.617 25.9368 22.617 25.9368 23.4465C25.9368 24.6865 25.9368 25.9264 25.9368 27.1664C25.9368 27.9874 27.3562 27.9874 27.3562 27.1664Z" fill="#212121"/>
<path d="M34.0176 27.1664C34.0176 25.9264 34.0176 24.6865 34.0176 23.4465C34.0176 22.617 32.5983 22.617 32.5983 23.4465C32.5983 24.6865 32.5983 25.9264 32.5983 27.1664C32.5983 27.9874 34.0176 27.9874 34.0176 27.1664Z" fill="#212121"/>
<path d="M5.6683 14.8264C5.62098 15.8269 4.00291 15.8269 3.9556 14.8264C3.91775 13.8344 5.63045 13.8344 5.6683 14.8264C5.70615 15.6474 7.12551 15.6559 7.08766 14.8264C7.04035 13.6719 6.08464 12.8168 4.81668 12.774C3.54871 12.7312 2.59301 13.7489 2.54569 14.8264C2.49838 15.9723 3.62441 16.836 4.81668 16.8788C6.08464 16.9215 7.04035 15.9039 7.08766 14.8264C7.12551 14.0054 5.70615 14.0054 5.6683 14.8264Z" fill="#212121"/>
<path d="M11.648 14.8264C11.6007 15.8269 9.98264 15.8269 9.93533 14.8264C9.88802 13.8344 11.6007 13.8344 11.648 14.8264C11.6859 15.6474 13.1052 15.6559 13.0674 14.8264C13.0201 13.6719 12.0644 12.8168 10.7964 12.774C9.52845 12.7312 8.57274 13.7489 8.52543 14.8264C8.47812 15.9723 9.60415 16.836 10.7964 16.8788C12.0644 16.9215 13.0201 15.9039 13.0674 14.8264C13.1052 14.0054 11.6859 14.0054 11.648 14.8264Z" fill="#212121"/>
<path d="M2.83868 10.4737C3.0847 10.9013 3.33072 11.3289 3.57675 11.7479C3.6903 11.9446 3.94578 12.0643 4.1918 12.0643C6.59526 12.0643 9.00818 12.0643 11.4116 12.0643C11.6482 12.0643 11.9131 11.9446 12.0267 11.7479C12.6512 10.679 13.342 9.65278 13.342 8.39569C13.342 7.59184 13.342 6.79654 13.342 5.99269C13.342 5.64207 13.0203 5.35132 12.6323 5.35132C9.4056 5.35132 6.18838 5.35132 2.96169 5.35132C2.57373 5.35132 2.25201 5.64207 2.25201 5.99269C2.26147 7.50633 2.06276 9.07982 2.83868 10.4737C3.24556 11.2177 4.47568 10.5678 4.06879 9.82382C3.68083 9.12258 3.68083 8.4128 3.68083 7.6517C3.68083 7.09585 3.68083 6.54855 3.68083 5.99269C3.44427 6.20648 3.20771 6.42027 2.97115 6.63406C6.19784 6.63406 9.41507 6.63406 12.6418 6.63406C12.4052 6.42027 12.1686 6.20648 11.9321 5.99269C11.9321 6.77944 11.9321 7.55764 11.9321 8.34439C11.9321 9.37913 11.317 10.2172 10.806 11.098C11.0142 10.9954 11.2129 10.8842 11.4211 10.7816C9.01764 10.7816 6.60472 10.7816 4.20127 10.7816C4.40944 10.8842 4.60815 10.9954 4.81632 11.098C4.5703 10.6704 4.32428 10.2428 4.07825 9.82382C3.63352 9.08838 2.41287 9.7383 2.83868 10.4737Z" fill="#212121"/>
<path d="M14.9035 6.72815C14.1465 6.72815 13.399 6.72815 12.642 6.72815C11.7241 6.72815 11.7241 8.01089 12.642 8.01089C13.399 8.01089 14.1465 8.01089 14.9035 8.01089C15.8213 8.01089 15.8213 6.72815 14.9035 6.72815Z" fill="#212121"/>
<path d="M2.97099 6.72815C2.214 6.72815 1.46647 6.72815 0.709472 6.72815C-0.208384 6.72815 -0.208384 8.01089 0.709472 8.01089C1.46647 8.01089 2.214 8.01089 2.97099 8.01089C3.88885 8.01089 3.88885 6.72815 2.97099 6.72815Z" fill="#212121"/>
<path d="M26.4189 2.50357C31.1028 2.50357 35.7961 2.50357 40.48 2.50357C41.994 2.50357 43.508 2.50357 45.022 2.50357C45.9399 2.50357 45.9399 1.22083 45.022 1.22083C40.3381 1.22083 35.6447 1.22083 30.9608 1.22083C29.4469 1.22083 27.9329 1.22083 26.4189 1.22083C25.501 1.22083 25.501 2.50357 26.4189 2.50357Z" fill="#212121"/>
<path d="M34.0738 5.95852C34.0738 4.20544 34.0738 2.45235 34.0738 0.707824C34.0738 -0.121683 32.6545 -0.121683 32.6545 0.707824C32.6545 2.46091 32.6545 4.21399 32.6545 5.95852C32.6545 6.78802 34.0738 6.78802 34.0738 5.95852Z" fill="#212121"/>
<path d="M34.2254 7.36949C34.1781 8.37002 32.56 8.37002 32.5127 7.36949C32.4654 6.3775 34.1781 6.3775 34.2254 7.36949C34.2633 8.19044 35.6826 8.19899 35.6448 7.36949C35.5975 6.21502 34.6417 5.35986 33.3738 5.3171C32.1058 5.27434 31.1501 6.29198 31.1028 7.36949C31.0555 8.5154 32.1815 9.37912 33.3738 9.42187C34.6417 9.46463 35.5975 8.44699 35.6448 7.36949C35.6732 6.54853 34.2538 6.54853 34.2254 7.36949Z" fill="#212121"/>
<path d="M42.6659 5.88138C42.6659 4.12829 42.6659 2.37521 42.6659 0.62213C42.6659 -0.207377 41.2465 -0.207377 41.2465 0.62213C41.2465 2.37521 41.2465 4.12829 41.2465 5.88138C41.2465 6.71088 42.6659 6.71088 42.6659 5.88138Z" fill="#212121"/>
<path d="M42.8173 7.29246C42.77 8.293 41.1519 8.293 41.1046 7.29246C41.0573 6.30047 42.77 6.30047 42.8173 7.29246C42.8551 8.11341 44.2745 8.12197 44.2366 7.29246C44.1893 6.13799 43.2336 5.28283 41.9656 5.24007C40.6977 5.19731 39.742 6.21496 39.6947 7.29246C39.6473 8.43838 40.7734 9.30209 41.9656 9.34485C43.2336 9.38761 44.1893 8.36996 44.2366 7.29246C44.265 6.4715 42.8457 6.4715 42.8173 7.29246Z" fill="#212121"/>
</svg>
