<svg width="48" height="50" viewBox="0 0 48 50" fill="none" xmlns="http://www.w3.org/2000/svg">
<path d="M0.999989 18.8738C0.999989 16.6646 2.79085 14.8738 4.99999 14.8738H42.6406C44.8497 14.8738 46.6406 16.6646 46.6406 18.8738V44.1944C46.6406 46.4036 44.8497 48.1944 42.6406 48.1944H4.99998C2.79085 48.1944 0.999989 46.4036 0.999989 44.1944V18.8738Z" stroke="#212121" stroke-width="2" stroke-miterlimit="10" stroke-linecap="round" stroke-linejoin="round"/>
<path d="M42.2067 23.3524C43.2781 23.3524 44.1466 22.4567 44.1466 21.3518C44.1466 20.2469 43.2781 19.3512 42.2067 19.3512C41.1353 19.3512 40.2667 20.2469 40.2667 21.3518C40.2667 22.4567 41.1353 23.3524 42.2067 23.3524Z" stroke="#212121" stroke-width="2" stroke-miterlimit="10" stroke-linecap="round" stroke-linejoin="round"/>
<path d="M42.2067 30.1162C43.2781 30.1162 44.1466 29.2206 44.1466 28.1157C44.1466 27.0108 43.2781 26.1151 42.2067 26.1151C41.1353 26.1151 40.2667 27.0108 40.2667 28.1157C40.2667 29.2206 41.1353 30.1162 42.2067 30.1162Z" stroke="#212121" stroke-width="2" stroke-miterlimit="10" stroke-linecap="round" stroke-linejoin="round"/>
<path d="M32.3929 44.2853C34.6161 44.2853 36.5714 42.6309 37.1873 40.227C37.6707 38.3344 38.0679 35.9337 38.0679 32.2946C38.0679 29.2715 37.8093 25.9658 37.4613 24.3209C36.9286 21.7964 34.9179 20.0181 32.6115 20.0181H10.7828C8.47334 20.0181 6.46567 21.7964 5.93296 24.3209C5.58501 25.969 5.32635 29.2715 5.32635 32.2946C5.32635 35.9337 5.72357 38.3344 6.20701 40.227C6.82286 42.6309 8.77818 44.2853 11.0014 44.2853H32.3929Z" stroke="#212121" stroke-width="2" stroke-miterlimit="10" stroke-linecap="round" stroke-linejoin="round"/>
<path d="M26.684 23.8287C26.684 23.8287 32.5038 24.4003 33.7971 30.8784" stroke="#212121" stroke-width="2" stroke-miterlimit="10" stroke-linecap="round" stroke-linejoin="round"/>
<path d="M34.1723 5.10593C34.1723 5.10593 40.1522 14.8738 40.1522 14.6166C40.1522 14.3594 46.7603 1 46.7603 1" stroke="#212121" stroke-width="2" stroke-miterlimit="10" stroke-linecap="round" stroke-linejoin="round"/>
</svg>
