<svg width="48" height="42" viewBox="0 0 48 42" fill="none" xmlns="http://www.w3.org/2000/svg">
<path fill-rule="evenodd" clip-rule="evenodd" d="M4.13793 37.4741V40.5969C4.13793 41.1715 4.50869 41.6379 4.96552 41.6379H9.93103C10.3879 41.6379 10.7586 41.1715 10.7586 40.5969V37.4741H37.2414V40.5969C37.2414 41.1715 37.6122 41.6379 38.069 41.6379H43.0345C43.4913 41.6379 43.8621 41.1715 43.8621 40.5969V37.4741H45.5173C46.176 37.4741 46.8074 37.1452 47.2726 36.5592C47.7385 35.9742 48 35.1799 48 34.3513V3.12284C48 2.29425 47.7385 1.5 47.2726 0.914994C46.8074 0.328939 46.176 0 45.5173 0H2.48276C1.824 0 1.19255 0.328939 0.727448 0.914994C0.261518 1.5 0 2.29425 0 3.12284C0 9.39768 0 28.0765 0 34.3513C0 35.1799 0.261518 35.9742 0.727448 36.5592C1.19255 37.1452 1.824 37.4741 2.48276 37.4741H4.13793ZM9.10345 37.4741V39.556H5.7931V37.4741H9.10345ZM42.2069 37.4741V39.556H38.8966V37.4741H42.2069ZM33.1034 2.0819V35.3922H2.48276C2.26345 35.3922 2.05242 35.2829 1.89766 35.0872C1.74207 34.8926 1.65518 34.6272 1.65518 34.3513V3.12284C1.65518 2.847 1.74207 2.58156 1.89766 2.3869C2.05242 2.19119 2.26345 2.0819 2.48276 2.0819H33.1034ZM34.7586 2.0819H45.5173C45.7366 2.0819 45.9476 2.19119 46.1023 2.3869C46.2579 2.58156 46.3448 2.847 46.3448 3.12284V34.3513C46.3448 34.6272 46.2579 34.8926 46.1023 35.0872C45.9476 35.2829 45.7366 35.3922 45.5173 35.3922H34.7586V2.0819ZM31.4482 5.20474C31.4482 4.63013 31.0775 4.16379 30.6207 4.16379H4.13793C3.6811 4.16379 3.31034 4.63013 3.31034 5.20474V32.2694C3.31034 32.844 3.6811 33.3103 4.13793 33.3103H30.6207C31.0775 33.3103 31.4482 32.844 31.4482 32.2694V5.20474ZM36.4138 31.2284H44.6897C45.1465 31.2284 45.5173 30.7621 45.5173 30.1875V26.0237C45.5173 25.4491 45.1465 24.9828 44.6897 24.9828H36.4138C35.957 24.9828 35.5862 25.4491 35.5862 26.0237V30.1875C35.5862 30.7621 35.957 31.2284 36.4138 31.2284ZM29.7931 6.24569V31.2284H4.96552V6.24569H29.7931ZM41.3793 27.0647H43.8621V29.1466H41.3793V27.0647ZM39.7242 27.0647V29.1466H37.2414V27.0647H39.7242ZM39.7242 17.6962C39.7242 17.1216 39.3534 16.6552 38.8966 16.6552H36.4138C35.957 16.6552 35.5862 17.1216 35.5862 17.6962V20.819C35.5862 21.3936 35.957 21.8599 36.4138 21.8599H38.8966C39.3534 21.8599 39.7242 21.3936 39.7242 20.819V17.6962ZM45.5173 17.6962C45.5173 17.1216 45.1465 16.6552 44.6897 16.6552H42.2069C41.7501 16.6552 41.3793 17.1216 41.3793 17.6962V20.819C41.3793 21.3936 41.7501 21.8599 42.2069 21.8599H44.6897C45.1465 21.8599 45.5173 21.3936 45.5173 20.819V17.6962ZM38.069 18.7371V19.7781H37.2414V18.7371H38.069ZM43.8621 18.7371V19.7781H43.0345V18.7371H43.8621ZM39.7242 9.36853C39.7242 8.79393 39.3534 8.32759 38.8966 8.32759H36.4138C35.957 8.32759 35.5862 8.79393 35.5862 9.36853V12.4914C35.5862 13.066 35.957 13.5323 36.4138 13.5323H38.8966C39.3534 13.5323 39.7242 13.066 39.7242 12.4914V9.36853ZM45.5173 9.36853C45.5173 8.79393 45.1465 8.32759 44.6897 8.32759H42.2069C41.7501 8.32759 41.3793 8.79393 41.3793 9.36853V12.4914C41.3793 13.066 41.7501 13.5323 42.2069 13.5323H44.6897C45.1465 13.5323 45.5173 13.066 45.5173 12.4914V9.36853ZM38.069 10.4095V11.4504H37.2414V10.4095H38.069ZM43.8621 10.4095V11.4504H43.0345V10.4095H43.8621Z" fill="#212121"/>
</svg>
