<svg width="30" height="30" viewBox="0 0 30 30" fill="none" xmlns="http://www.w3.org/2000/svg">
<path d="M21.8207 7.63024L21.8207 7.63032C21.5267 11.4658 18.5077 14.5071 15.189 14.5071C11.87 14.5071 8.84616 11.4648 8.55673 7.62976C8.41259 5.71049 9.02566 3.95334 10.2669 2.6648C11.4969 1.38829 13.2384 0.673645 15.189 0.673645C17.1265 0.673645 18.8625 1.39152 20.0998 2.67776C21.3512 3.97857 21.9665 5.73239 21.8207 7.63024ZM27.3001 29.3407L27.3001 29.3406H27.294H3.0841V29.3406L3.07784 29.3407C2.83231 29.3437 2.58972 29.294 2.36793 29.1958C2.14618 29.0976 1.95157 28.9538 1.79744 28.776L1.79711 28.7756C1.45694 28.3841 1.31008 27.8389 1.41726 27.2682L1.41731 27.2679C1.97046 24.3135 3.69456 21.8233 6.43552 20.0633C8.87698 18.4969 11.9857 17.6262 15.189 17.6262C18.3923 17.6262 21.5011 18.4975 23.9426 20.0634C26.6835 21.8227 28.4076 24.3128 28.9608 27.2672L28.9608 27.2675C29.068 27.8383 28.9211 28.3835 28.581 28.775L28.5805 28.7755C28.4264 28.9534 28.2318 29.0973 28.0101 29.1956C27.7883 29.2939 27.5457 29.3437 27.3001 29.3407Z" fill="black" fill-opacity="0.2" stroke="white"/>
</svg>
