<?xml version="1.0" encoding="UTF-8"?>
<!DOCTYPE svg PUBLIC "-//W3C//DTD SVG 1.1//EN" "http://www.w3.org/Graphics/SVG/1.1/DTD/svg11.dtd">
<!-- Creator: CorelDRAW -->
<svg xmlns="http://www.w3.org/2000/svg" xml:space="preserve" width="47.5395mm" height="49.7576mm" version="1.1" style="shape-rendering:geometricPrecision; text-rendering:geometricPrecision; image-rendering:optimizeQuality; fill-rule:evenodd; clip-rule:evenodd"
viewBox="0 0 4824.22 5049.31"
 xmlns:xlink="http://www.w3.org/1999/xlink"
 xmlns:xodm="http://www.corel.com/coreldraw/odm/2003">
 <defs>
  <style type="text/css">
   <![CDATA[
    .str0 {stroke:#2B2A29;stroke-width:20.3;stroke-miterlimit:22.9256}
    .fil3 {fill:#17B6FF}
    .fil5 {fill:#277796}
    .fil8 {fill:#75AD64}
    .fil2 {fill:#76CAAF}
    .fil10 {fill:#81C3C4}
    .fil4 {fill:#85AB38}
    .fil9 {fill:#91C481}
    .fil6 {fill:#AD9264}
    .fil7 {fill:#ADA664}
    .fil1 {fill:black;fill-rule:nonzero}
    .fil11 {fill:url(#id0)}
    .fil13 {fill:url(#id1)}
    .fil12 {fill:url(#id2)}
    .fil0 {fill:url(#id3)}
   ]]>
  </style>
  <linearGradient id="id0" gradientUnits="objectBoundingBox" x1="0%" y1="50%" x2="100%" y2="50%">
   <stop offset="0" style="stop-opacity:1; stop-color:#A69B5D"/>
   <stop offset="1" style="stop-opacity:1; stop-color:white"/>
  </linearGradient>
  <linearGradient id="id1" gradientUnits="userSpaceOnUse" xlink:href="#id0" x1="1893.7" y1="1359.81" x2="217" y2="1359.81">
  </linearGradient>
  <linearGradient id="id2" gradientUnits="userSpaceOnUse" xlink:href="#id0" x1="1945.49" y1="669.4" x2="2604.23" y2="2043.55">
  </linearGradient>
  <radialGradient id="id3" gradientUnits="objectBoundingBox" cx="50%" cy="50%" r="50%" fx="50%" fy="50%">
   <stop offset="0" style="stop-opacity:1; stop-color:#A69B5D"/>
   <stop offset="1" style="stop-opacity:1; stop-color:#FEFEFE"/>
  </radialGradient>
 </defs>
 <g id="Слой_x0020_1">
  <metadata id="CorelCorpID_0Corel-Layer"/>
  <g id="_1965885170336">
   <g>
    <g>
     <rect class="fil0" x="238.34" y="4751.96" width="4585.88" height="249.23" rx="243.55" ry="121.77"/>
     <path class="fil1" d="M2140.7 70.2c-53.7,53.7 -71.6,107.39 -60.86,196.9 14.32,118.14 10.74,121.71 -114.56,121.71 -221.95,0 -579.95,103.82 -894.98,257.75 -658.71,322.19 -1202.85,1124.09 -1041.76,1539.36l39.38 100.24 1056.07 0 1056.07 0 0 823.38 0 823.38 -268.49 3.58c-146.78,3.58 -282.81,7.16 -304.29,10.74 -17.9,3.58 -275.66,-225.54 -569.21,-504.77 -297.14,-279.24 -576.37,-519.09 -622.9,-533.41 -110.98,-25.05 -289.97,64.44 -368.73,182.58 -100.24,153.93 -39.38,257.75 422.43,723.14l433.17 433.17 -82.34 139.61c-264.92,447.49 -293.56,522.67 -200.48,558.47 64.44,25.05 128.88,-50.12 272.07,-325.78 64.44,-121.71 128.88,-221.95 143.2,-221.95 10.74,0 68.02,50.12 125.3,107.39l103.82 107.39 1499.99 0c826.97,-3.58 1507.14,0 1510.73,7.16 3.58,7.16 60.86,103.82 125.3,214.8 107.39,196.9 211.22,264.92 264.92,175.42 21.48,-32.22 -175.42,-418.85 -229.12,-451.07 -14.32,-10.74 3.58,-75.18 39.38,-150.36 78.76,-157.51 60.86,-282.81 -64.44,-397.37 -85.92,-78.76 -100.24,-78.76 -1088.29,-78.76l-998.8 0 0 -823.38 0 -823.38 1048.92 0c597.85,0 1066.82,-14.32 1099.04,-35.8 39.38,-25.05 53.7,-89.49 50.12,-232.7 -14.32,-501.19 -526.25,-1113.36 -1202.85,-1424.82 -153.93,-71.6 -651.55,-204.05 -773.26,-204.05 -75.18,0 -82.34,-14.32 -60.86,-100.24 14.32,-71.6 0,-128.88 -53.7,-196.9 -93.08,-114.56 -189.73,-121.71 -289.97,-21.48l-0.02 0.03zm-247.02 551.31c0,10.74 -57.27,93.08 -132.46,186.15 -182.58,239.85 -354.41,615.75 -447.49,988.06l-82.34 315.03 -497.61 -7.16c-368.73,-7.16 -497.61,-21.48 -511.93,-57.27 -32.22,-85.92 100.24,-418.85 264.92,-647.97 179,-254.17 436.75,-461.81 741.04,-601.43 257.75,-118.14 665.87,-225.54 665.87,-175.42l-0.01 0.01zm647.97 168.25c239.85,300.71 529.83,988.06 533.41,1270.87 0,57.27 -1557.26,68.02 -1593.07,10.74 -39.38,-60.86 85.92,-472.55 229.12,-769.68 168.26,-343.68 472.55,-698.09 594.27,-698.09 57.27,0 128.88,57.27 236.27,186.15l0 0.01zm776.85 50.12c536.99,261.34 963,744.63 984.48,1116.94l7.16 132.46 -508.34 10.74c-282.81,7.16 -511.93,0 -511.93,-10.74 0,-10.74 -25.05,-139.61 -53.7,-282.81 -85.92,-415.27 -286.39,-859.19 -497.61,-1091.88l-75.18 -82.34 161.1 21.48c89.49,14.32 311.46,96.66 494.03,186.15l-0.01 -0.01zm-2362.76 2778.03l501.19 494.03 1392.6 0c1034.6,0 1403.33,10.74 1435.55,42.96 64.44,64.44 50.12,200.48 -25.05,243.44 -46.54,21.48 -579.95,35.8 -1492.83,35.8l-1421.23 0 -565.63 -562.05c-315.03,-307.87 -569.21,-587.11 -569.21,-619.33 0,-85.92 78.76,-146.78 168.26,-136.04 42.96,7.16 293.56,225.54 576.37,501.19l-0.01 0.01z"/>
     <path class="fil2 str0" d="M4285.08 4154.89c-32.22,-32.22 -400.95,-42.96 -1435.55,-42.96l-1392.6 0 -501.18 -494.04c-282.81,-275.66 -533.41,-494.03 -576.37,-501.19 -89.5,-10.74 -168.26,50.12 -168.26,136.04 0,32.22 254.18,311.46 569.21,619.33l565.63 562.05 1421.23 0c912.88,0 1446.29,-14.32 1492.83,-35.8 75.18,-42.96 89.49,-179 25.05,-243.44z"/>
     <path class="fil3 str0" d="M4285.08 4154.89c-32.22,-32.22 -400.95,-42.96 -1435.55,-42.96l-1392.6 0 -501.18 -494.04c-282.81,-275.66 -533.41,-494.03 -576.37,-501.19 -89.5,-10.74 -168.26,50.12 -168.26,136.04 0,32.22 254.18,311.46 569.21,619.33l565.63 562.05 1421.23 0c912.88,0 1446.29,-14.32 1492.83,-35.8 75.18,-42.96 89.49,-179 25.05,-243.44z"/>
     <path class="fil4 str0" d="M955.75 3617.9c-282.81,-275.66 -533.41,-494.03 -576.37,-501.19 -89.5,-10.74 -168.26,50.12 -168.26,136.04 0,32.22 254.18,311.46 569.21,619.33l565.63 562.05 1421.23 0c912.88,0 1446.29,-14.32 1492.83,-35.8 75.18,-42.96 89.49,-179 25.05,-243.44 -32.22,-32.22 -400.95,-42.96 -1435.55,-42.96l-1392.6 0 -501.18 -494.04z"/>
     <path class="fil5 str0" d="M2849.53 4111.94l-1392.6 0 -501.18 -494.04c-282.81,-275.66 -533.41,-494.03 -576.37,-501.19 -89.5,-10.74 -168.26,50.12 -168.26,136.04 0,32.22 254.18,311.46 569.21,619.33l565.63 562.05 1421.23 0c912.88,0 1446.29,-14.32 1492.83,-35.8 75.18,-42.96 89.49,-179 25.05,-243.44 -32.22,-32.22 -400.95,-42.96 -1435.55,-42.96z"/>
     <path class="fil5 str0" d="M1482 2071.37c35.8,57.28 1593.07,46.54 1593.07,-10.74 -3.58,-282.81 -293.56,-970.16 -533.41,-1270.88 -107.39,-128.88 -179,-186.15 -236.27,-186.15 -121.71,0 -426.01,354.41 -594.27,698.09 -143.2,297.13 -268.5,708.83 -229.12,769.68z"/>
     <path class="fil6 str0" d="M1313.74 1795.73c93.08,-372.31 264.91,-748.21 447.49,-988.06 75.19,-93.08 132.46,-175.42 132.47,-186.16 0,-50.12 -408.11,57.27 -665.87,175.42 -304.29,139.62 -562.05,347.26 -741.04,601.43 -164.68,229.12 -297.14,562.05 -264.92,647.97 14.32,35.79 143.2,50.11 511.93,57.27l497.61 7.16 82.34 -315.03z"/>
     <path class="fil6 str0" d="M2738.56 714.6c211.22,232.69 411.69,676.61 497.61,1091.88 28.65,143.2 53.7,272.07 53.7,282.81 0,10.74 229.12,17.9 511.93,10.74l508.34 -10.74 -7.16 -132.46c-21.48,-372.31 -447.49,-855.6 -984.47,-1116.93 -182.57,-89.49 -404.53,-171.83 -494.03,-186.15l-161.1 -21.48 75.18 82.34z"/>
     <path class="fil7 str0" d="M1313.74 1795.73c93.08,-372.31 264.91,-748.21 447.49,-988.06 75.19,-93.08 132.46,-175.42 132.47,-186.16 0,-50.12 -408.11,57.27 -665.87,175.42 -304.29,139.62 -562.05,347.26 -741.04,601.43 -164.68,229.12 -297.14,562.05 -264.92,647.97 14.32,35.79 143.2,50.11 511.93,57.27l497.61 7.16 82.34 -315.03z"/>
     <path class="fil7 str0" d="M2738.56 714.6c211.22,232.69 411.69,676.61 497.61,1091.88 28.65,143.2 53.7,272.07 53.7,282.81 0,10.74 229.12,17.9 511.93,10.74l508.34 -10.74 -7.16 -132.46c-21.48,-372.31 -447.49,-855.6 -984.47,-1116.93 -182.57,-89.49 -404.53,-171.83 -494.03,-186.15l-161.1 -21.48 75.18 82.34z"/>
     <path class="fil8 str0" d="M2738.56 714.6c211.22,232.69 411.69,676.61 497.61,1091.88 28.65,143.2 53.7,272.07 53.7,282.81 0,10.74 229.12,17.9 511.93,10.74l508.34 -10.74 -7.16 -132.46c-21.48,-372.31 -447.49,-855.6 -984.47,-1116.93 -182.57,-89.49 -404.53,-171.83 -494.03,-186.15l-161.1 -21.48 75.18 82.34z"/>
     <path class="fil8 str0" d="M1313.74 1795.73c93.08,-372.31 264.91,-748.21 447.49,-988.06 75.19,-93.08 132.46,-175.42 132.47,-186.16 0,-50.12 -408.11,57.27 -665.87,175.42 -304.29,139.62 -562.05,347.26 -741.04,601.43 -164.68,229.12 -297.14,562.05 -264.92,647.97 14.32,35.79 143.2,50.11 511.93,57.27l497.61 7.16 82.34 -315.03z"/>
     <path class="fil9 str0" d="M1313.74 1795.73c93.08,-372.31 264.91,-748.21 447.49,-988.06 75.19,-93.08 132.46,-175.42 132.47,-186.16 0,-50.12 -408.11,57.27 -665.87,175.42 -304.29,139.62 -562.05,347.26 -741.04,601.43 -164.68,229.12 -297.14,562.05 -264.92,647.97 14.32,35.79 143.2,50.11 511.93,57.27l497.61 7.16 82.34 -315.03z"/>
     <path class="fil9 str0" d="M2738.56 714.6c211.22,232.69 411.69,676.61 497.61,1091.88 28.65,143.2 53.7,272.07 53.7,282.81 0,10.74 229.12,17.9 511.93,10.74l508.34 -10.74 -7.16 -132.46c-21.48,-372.31 -447.49,-855.6 -984.47,-1116.93 -182.57,-89.49 -404.53,-171.83 -494.03,-186.15l-161.1 -21.48 75.18 82.34z"/>
     <path class="fil10 str0" d="M3075.06 2060.64c-3.58,-282.81 -293.56,-970.16 -533.41,-1270.88 -107.39,-128.88 -179,-186.15 -236.27,-186.15 -121.71,0 -426.01,354.41 -594.27,698.09 -143.2,297.13 -268.5,708.83 -229.12,769.68 35.8,57.28 1593.07,46.54 1593.07,-10.74z"/>
     <path class="fil11 str0" d="M2738.56 714.6c211.22,232.69 411.69,676.61 497.61,1091.88 28.65,143.2 53.7,272.07 53.7,282.81 0,10.74 229.12,17.9 511.93,10.74l508.34 -10.74 -7.16 -132.46c-21.48,-372.31 -447.49,-855.6 -984.47,-1116.93 -182.57,-89.49 -404.53,-171.83 -494.03,-186.15l-161.1 -21.48 75.18 82.34z"/>
     <path class="fil12 str0" d="M3075.06 2060.64c-3.58,-282.81 -293.56,-970.16 -533.41,-1270.88 -107.39,-128.88 -179,-186.15 -236.27,-186.15 -121.71,0 -426.01,354.41 -594.27,698.09 -143.2,297.13 -268.5,708.83 -229.12,769.68 35.8,57.28 1593.07,46.54 1593.07,-10.74z"/>
     <path class="fil13 str0" d="M1231.4 2110.76l82.34 -315.03c93.08,-372.31 264.91,-748.21 447.49,-988.06 75.19,-93.08 132.46,-175.42 132.47,-186.16 0,-50.12 -408.11,57.27 -665.87,175.42 -304.29,139.62 -562.05,347.26 -741.04,601.43 -164.68,229.12 -297.14,562.05 -264.92,647.97 14.32,35.79 143.2,50.11 511.93,57.27l497.61 7.16z"/>
     <path class="fil11 str0" d="M2849.53 4111.94l-1392.6 0 -501.18 -494.04c-282.81,-275.66 -533.41,-494.03 -576.37,-501.19 -89.5,-10.74 -168.26,50.12 -168.26,136.04 0,32.22 254.18,311.46 569.21,619.33l565.63 562.05 1421.23 0c912.88,0 1446.29,-14.32 1492.83,-35.8 75.18,-42.96 89.49,-179 25.05,-243.44 -32.22,-32.22 -400.95,-42.96 -1435.55,-42.96z"/>
    </g>
   </g>
  </g>
 </g>
</svg>
