<?xml version="1.0" ?>
<!DOCTYPE svg  PUBLIC '-//W3C//DTD SVG 1.1//EN'  'http://www.w3.org/Graphics/SVG/1.1/DTD/svg11.dtd'>
<!-- Uploaded to: SVG Repo, www.svgrepo.com, Generator: SVG Repo Mixer Tools -->
<svg width="800px" height="800px" viewBox="0 0 32 32" enable-background="new 0 0 32 32" id="_x3C_Layer_x3E_" version="1.1" xml:space="preserve" xmlns="http://www.w3.org/2000/svg" xmlns:xlink="http://www.w3.org/1999/xlink">
<g id="bus_x2C__transport_x2C_vehicle">
<g id="XMLID_598_">
<line fill="none" id="XMLID_599_" stroke="#263238" stroke-linecap="round" stroke-linejoin="round" stroke-miterlimit="10" x1="20" x2="10.5" y1="25.5" y2="25.5"/>
<path d="    M24.5,15.5l6,2.08V17.5l-1.36-6.78c-0.08-0.44-0.25-0.85-0.46-1.22H24.5V15.5z" fill="none" id="XMLID_600_" stroke="#263238" stroke-linecap="round" stroke-linejoin="round" stroke-miterlimit="10"/>
<rect fill="none" height="6" id="XMLID_601_" stroke="#263238" stroke-linecap="round" stroke-linejoin="round" stroke-miterlimit="10" width="6" x="6.5" y="9.5"/>
<rect fill="none" height="6" id="XMLID_602_" stroke="#263238" stroke-linecap="round" stroke-linejoin="round" stroke-miterlimit="10" width="6" x="12.5" y="9.5"/>
<rect fill="none" height="6" id="XMLID_603_" stroke="#263238" stroke-linecap="round" stroke-linejoin="round" stroke-miterlimit="10" width="6" x="18.5" y="9.5"/>
<polyline fill="none" id="XMLID_604_" points="    1.5,15.5 6.5,15.5 6.5,9.5 3.68,9.5   " stroke="#263238" stroke-linecap="round" stroke-linejoin="round" stroke-miterlimit="10"/>
<line fill="none" id="XMLID_605_" stroke="#263238" stroke-linecap="round" stroke-linejoin="round" stroke-miterlimit="10" x1="24" x2="3.5" y1="28.5" y2="28.5"/>
<line fill="none" id="XMLID_606_" stroke="#263238" stroke-linecap="round" stroke-linejoin="round" stroke-miterlimit="10" x1="1.6" x2="1.5" y1="28.5" y2="28.5"/>
<circle cx="24" cy="26" fill="none" id="XMLID_607_" r="2.5" stroke="#263238" stroke-linecap="round" stroke-linejoin="round" stroke-miterlimit="10"/>
<circle cx="8" cy="26" fill="none" id="XMLID_608_" r="2.5" stroke="#263238" stroke-linecap="round" stroke-linejoin="round" stroke-miterlimit="10"/>
<circle cx="24" cy="26" fill="none" id="XMLID_609_" r="0.5" stroke="#263238" stroke-linecap="round" stroke-linejoin="round" stroke-miterlimit="10"/>
<circle cx="8" cy="26" fill="none" id="XMLID_610_" r="0.5" stroke="#263238" stroke-linecap="round" stroke-linejoin="round" stroke-miterlimit="10"/>
<line fill="none" id="XMLID_611_" stroke="#263238" stroke-linecap="round" stroke-linejoin="round" stroke-miterlimit="10" x1="1.6" x2="1.5" y1="28.5" y2="28.5"/>
<polyline fill="none" id="XMLID_612_" points="    2.5,20.5 1.5,20.5 1.5,22.5 2.5,22.5   " stroke="#263238" stroke-linecap="round" stroke-linejoin="round" stroke-miterlimit="10"/>
<rect fill="none" height="2" id="XMLID_613_" stroke="#263238" stroke-linecap="round" stroke-linejoin="round" stroke-miterlimit="10" width="2" x="28.5" y="21.5"/>
<path d="    M4,25.5H2.5c-0.55,0-1-0.45-1-1v-14c0-1.66,1.34-3,3-3h20.72c1.91,0,3.55,1.35,3.92,3.22l1.36,6.78v7c0,0.55-0.45,1-1,1h-3.05" fill="none" id="XMLID_614_" stroke="#263238" stroke-linecap="round" stroke-linejoin="round" stroke-miterlimit="10"/>
<line fill="none" id="XMLID_615_" stroke="#263238" stroke-linecap="round" stroke-linejoin="round" stroke-miterlimit="10" x1="30.5" x2="12.5" y1="30.5" y2="30.5"/>
</g>
</g>
</svg>