<?xml version="1.0" ?>
<!DOCTYPE svg  PUBLIC '-//W3C//DTD SVG 1.1//EN'  'http://www.w3.org/Graphics/SVG/1.1/DTD/svg11.dtd'>
<!-- Uploaded to: SVG Repo, www.svgrepo.com, Generator: SVG Repo Mixer Tools -->
<svg width="800px" height="800px" viewBox="0 0 32 32" enable-background="new 0 0 32 32" id="_x3C_Layer_x3E_" version="1.1" xml:space="preserve" xmlns="http://www.w3.org/2000/svg" xmlns:xlink="http://www.w3.org/1999/xlink">
<g id="car_x2C__sedan_x2C__automobile_1_">
<g id="XMLID_631_">
<line fill="none" id="XMLID_632_" stroke="#263238" stroke-linecap="round" stroke-linejoin="round" stroke-miterlimit="10" x1="30.5" x2="12.5" y1="29.5" y2="29.5"/>
<line fill="none" id="XMLID_633_" stroke="#263238" stroke-linecap="round" stroke-linejoin="round" stroke-miterlimit="10" x1="23" x2="3.5" y1="27.5" y2="27.5"/>
<g id="XMLID_634_">
<line fill="none" id="XMLID_635_" stroke="#263238" stroke-linecap="round" stroke-linejoin="round" stroke-miterlimit="10" x1="15.6" x2="15.5" y1="19.5" y2="19.5"/>
<line fill="none" id="XMLID_636_" stroke="#263238" stroke-linecap="round" stroke-linejoin="round" stroke-miterlimit="10" x1="17.6" x2="17.5" y1="19.5" y2="19.5"/>
<line fill="none" id="XMLID_637_" stroke="#263238" stroke-linecap="round" stroke-linejoin="round" stroke-miterlimit="10" x1="18.6" x2="18.5" y1="18.5" y2="18.5"/>
<line fill="none" id="XMLID_638_" stroke="#263238" stroke-linecap="round" stroke-linejoin="round" stroke-miterlimit="10" x1="16.6" x2="16.5" y1="18.5" y2="18.5"/>
<line fill="none" id="XMLID_639_" stroke="#263238" stroke-linecap="round" stroke-linejoin="round" stroke-miterlimit="10" x1="14.6" x2="14.5" y1="18.5" y2="18.5"/>
</g>
<line fill="none" id="XMLID_640_" stroke="#263238" stroke-linecap="round" stroke-linejoin="round" stroke-miterlimit="10" x1="1.6" x2="1.5" y1="27.5" y2="27.5"/>
<line fill="none" id="XMLID_659_" stroke="#263238" stroke-linecap="round" stroke-linejoin="round" stroke-miterlimit="10" x1="10.5" x2="19" y1="24.5" y2="24.5"/>
<path d="    M26.5,24.5h2c1.08,0,1.96-0.86,2-1.93c-0.04-2.79-1.73-5.29-4.31-6.36l-0.33-0.14c-0.89-0.38-1.68-0.96-2.3-1.7l-0.46-0.55    c-2.28-2.74-5.66-4.32-9.22-4.32h-2.63c-2.34,0-4.53,1.17-5.83,3.12l-0.37,0.55c-0.36,0.55-0.83,1.02-1.38,1.38l-1.28,0.86    C1.83,15.78,1.5,16.4,1.5,17.07v5.43c0,0.911,0.617,1.685,1.454,1.924" fill="none" id="XMLID_661_" stroke="#263238" stroke-linecap="round" stroke-linejoin="round" stroke-miterlimit="10"/>
<path d="    M14.5,15.5h10.33c-0.47-0.32-0.91-0.69-1.27-1.13l-0.46-0.55c-2.28-2.74-5.66-4.32-9.22-4.32h-2.63c-1.46,0-2.86,0.46-4.02,1.27" fill="none" id="XMLID_662_" stroke="#263238" stroke-linecap="round" stroke-linejoin="round" stroke-miterlimit="10"/>
<path d="    M7.879,12.5l0.15,0.4c0.58,1.57,2.07,2.6,3.74,2.6h0.73" fill="none" id="XMLID_663_" stroke="#263238" stroke-linecap="round" stroke-linejoin="round" stroke-miterlimit="10"/>
<path d="M10.5,24.5c0,1.66-1.34,3-3,3s-3-1.34-3-3    s1.34-3,3-3S10.5,22.84,10.5,24.5z" fill="none" id="XMLID_664_" stroke="#263238" stroke-miterlimit="10"/>
<circle cx="7.5" cy="24.5" fill="none" id="XMLID_665_" r="1" stroke="#263238" stroke-miterlimit="10"/>
<path d="M26.5,24.5c0,1.66-1.34,3-3,3s-3-1.34-3-3    s1.34-3,3-3S26.5,22.84,26.5,24.5z" fill="none" id="XMLID_666_" stroke="#263238" stroke-miterlimit="10"/>
<circle cx="23.5" cy="24.5" fill="none" id="XMLID_668_" r="1" stroke="#263238" stroke-miterlimit="10"/>
<polyline fill="none" id="XMLID_669_" points="    23.5,15.5 14.5,15.5 14,11   " stroke="#263238" stroke-linecap="round" stroke-linejoin="round" stroke-miterlimit="10"/>
<path d="    M29.1,18.5H26l0.12,0.49c0.22,0.89,1.02,1.51,1.94,1.51h0.59" fill="none" id="XMLID_672_" stroke="#263238" stroke-linecap="round" stroke-linejoin="round" stroke-miterlimit="10"/>
<line fill="none" id="XMLID_675_" stroke="#263238" stroke-linecap="round" stroke-linejoin="round" stroke-miterlimit="10" x1="3.417" x2="1.5" y1="18.5" y2="18.5"/>
<line fill="none" id="XMLID_678_" stroke="#263238" stroke-linecap="round" stroke-linejoin="round" stroke-miterlimit="10" x1="30.417" x2="28.5" y1="22.5" y2="22.5"/>
<path d="    M15.5,9.5h-5l0.72-1.45c0.17-0.34,0.52-0.55,0.9-0.55h1.76c0.38,0,0.73,0.21,0.9,0.55L15.5,9.5z" fill="none" id="XMLID_693_" stroke="#263238" stroke-linecap="round" stroke-linejoin="round" stroke-miterlimit="10"/>
</g>
</g>
</svg>