<?xml version="1.0" standalone="no"?>
<!DOCTYPE svg PUBLIC "-//W3C//DTD SVG 20010904//EN"
 "http://www.w3.org/TR/2001/REC-SVG-20010904/DTD/svg10.dtd">
<svg version="1.0" xmlns="http://www.w3.org/2000/svg"
 width="145.000000pt" height="146.000000pt" viewBox="0 0 145.000000 146.000000"
 preserveAspectRatio="xMidYMid meet">

<g transform="translate(0.000000,146.000000) scale(0.100000,-0.100000)"
fill="#000000" stroke="none">
<path d="M562 1310 c-204 -54 -352 -203 -407 -411 -24 -90 -17 -241 14 -320
57 -149 190 -279 346 -340 51 -20 78 -23 185 -23 105 0 135 3 185 22 156 58
287 193 347 358 32 89 31 254 -4 346 -54 144 -137 243 -261 312 -134 74 -266
92 -405 56z m178 -56 c-26 -31 -49 -36 -75 -17 -13 10 -25 21 -25 26 0 4 25 7
56 7 50 0 55 -2 44 -16z m209 -49 c63 -37 135 -104 156 -145 12 -24 11 -32
-16 -89 -16 -34 -35 -63 -42 -65 -6 -2 -43 -13 -80 -24 l-68 -21 -84 66 c-92
72 -86 60 -99 200 -5 49 -4 52 24 63 19 8 34 24 41 45 l12 33 49 -14 c27 -8
75 -30 107 -49z m-349 29 c8 -14 27 -32 42 -40 28 -14 28 -15 28 -114 0 -93
-1 -100 -22 -111 -13 -7 -52 -34 -87 -62 l-64 -50 -83 27 c-73 24 -83 30 -93
59 -7 17 -20 49 -31 69 -18 37 -18 38 3 65 54 69 130 128 204 159 74 30 87 30
103 -2z m-335 -294 c21 -40 20 -44 -17 -60 -18 -7 -37 -15 -42 -18 -4 -2 -5 6
-1 19 13 41 34 89 39 89 3 0 12 -13 21 -30z m915 -37 c0 -27 -3 -28 -35 -7
-24 15 -24 17 -9 47 l16 31 14 -25 c7 -13 13 -34 14 -46z m-417 5 c29 -24 62
-50 75 -58 l23 -15 -34 -100 c-31 -92 -36 -101 -63 -106 -52 -12 -140 -9 -158
4 -9 7 -30 53 -46 102 l-28 90 31 28 c38 33 129 96 140 97 4 0 31 -19 60 -42z
m355 -63 c20 -14 47 -25 59 -25 63 0 25 -225 -58 -341 -17 -24 -24 -28 -35
-18 -8 6 -38 11 -68 10 -48 -1 -56 2 -72 26 -9 15 -37 48 -61 74 l-44 47 35
97 c19 54 36 98 38 100 2 1 32 10 68 19 36 10 72 22 80 27 20 11 16 12 58 -16z
m-715 -6 l82 -20 29 -105 28 -104 -56 -70 -57 -70 -54 0 c-29 0 -60 -3 -68 -6
-10 -3 -25 11 -45 45 -44 71 -72 163 -72 237 l0 62 38 13 c20 6 46 18 57 25
25 18 20 18 118 -7z m464 -314 l54 -60 -6 -75 c-4 -50 -12 -79 -22 -87 -20
-16 -142 -43 -190 -43 -53 1 -152 23 -191 44 -27 14 -33 22 -28 39 3 12 0 41
-6 65 -10 42 -10 44 24 80 19 20 44 51 55 67 l21 30 117 0 118 0 54 -60z
m-435 -145 c2 -22 1 -40 -2 -40 -3 0 -25 18 -50 40 l-45 39 46 1 47 0 4 -40z
m586 5 c-44 -41 -63 -45 -54 -12 3 12 6 28 6 35 0 8 15 12 43 12 l42 -1 -37
-34z"/>
</g>
</svg>
