<?xml version="1.0" standalone="no"?>
<!DOCTYPE svg PUBLIC "-//W3C//DTD SVG 20010904//EN"
 "http://www.w3.org/TR/2001/REC-SVG-20010904/DTD/svg10.dtd">
<svg version="1.0" xmlns="http://www.w3.org/2000/svg"
 width="172.000000pt" height="151.000000pt" viewBox="0 0 172.000000 151.000000"
 preserveAspectRatio="xMidYMid meet">

<g transform="translate(0.000000,151.000000) scale(0.100000,-0.100000)"
fill="#000000" stroke="none">
<path d="M273 1375 c-30 -21 -45 -81 -44 -180 2 -230 81 -488 215 -700 18 -27
35 -55 39 -61 4 -8 -25 -23 -85 -45 -110 -40 -184 -42 -270 -9 -61 23 -78 21
-78 -10 0 -34 164 -78 247 -65 48 7 132 34 186 60 33 15 35 15 89 -13 30 -16
83 -35 119 -41 70 -13 122 -6 271 39 l76 23 64 -21 c54 -17 65 -19 77 -7 20
19 0 41 -49 56 -38 12 -38 12 -49 84 -33 224 -165 479 -335 649 -95 95 -276
209 -385 242 -58 17 -62 17 -88 -1z m160 -91 c218 -110 400 -294 501 -507 39
-83 85 -226 92 -289 l7 -57 -44 -11 c-24 -6 -56 -15 -71 -20 -26 -8 -29 -6
-64 58 -35 64 -261 453 -407 701 -38 64 -75 123 -83 132 -14 16 -18 29 -9 29
3 0 38 -16 78 -36z m179 -519 c61 -104 137 -235 169 -289 33 -55 56 -102 53
-105 -3 -3 -42 -6 -87 -6 -110 0 -163 26 -222 110 -93 132 -176 315 -215 478
-21 84 -38 311 -26 342 7 18 55 -60 328 -530z"/>
<path d="M1095 1183 c-72 -26 -115 -59 -115 -89 0 -32 29 -32 60 1 29 30 77
45 150 45 132 0 207 -58 245 -189 6 -21 5 -23 -11 -16 -11 4 -46 9 -79 12 -75
5 -117 -14 -160 -75 -27 -40 -30 -51 -29 -120 0 -64 6 -88 31 -144 50 -107
154 -205 259 -242 54 -18 141 -27 184 -18 28 6 35 12 35 32 0 24 -2 24 -90 25
-78 0 -97 4 -149 29 -158 77 -261 269 -209 388 36 80 108 96 218 47 40 -18 49
-19 61 -7 27 26 -27 184 -84 250 -64 72 -217 106 -317 71z"/>
<path d="M1565 189 c-21 -5 -71 -21 -110 -35 -88 -32 -142 -32 -226 0 -114 43
-151 43 -254 2 -106 -43 -168 -46 -247 -15 -145 58 -169 58 -295 8 -103 -41
-157 -39 -253 6 -40 20 -83 35 -94 33 -44 -6 -19 -34 68 -78 79 -40 97 -45
155 -45 53 0 80 7 140 33 95 43 135 44 236 2 109 -46 188 -46 298 -2 43 18 92
32 109 32 17 0 73 -13 125 -30 51 -17 107 -30 123 -30 17 0 79 16 139 35 59
19 121 35 137 35 43 0 62 15 48 37 -13 21 -44 25 -99 12z"/>
</g>
</svg>
