<?xml version="1.0" encoding="UTF-8"?>
<!DOCTYPE svg PUBLIC "-//W3C//DTD SVG 1.1//EN" "http://www.w3.org/Graphics/SVG/1.1/DTD/svg11.dtd">
<!-- Creator: CorelDRAW -->
<svg xmlns="http://www.w3.org/2000/svg" xml:space="preserve" width="56.6497mm" height="45.8575mm" version="1.1" style="shape-rendering:geometricPrecision; text-rendering:geometricPrecision; image-rendering:optimizeQuality; fill-rule:evenodd; clip-rule:evenodd"
viewBox="0 0 3000.68 2429.03"
 xmlns:xlink="http://www.w3.org/1999/xlink"
 xmlns:xodm="http://www.corel.com/coreldraw/odm/2003">
 <defs>
  <style type="text/css">
   <![CDATA[
    .str0 {stroke:#2B2A29;stroke-width:10.59;stroke-miterlimit:22.9256}
    .fil208 {fill:none}
    .fil4 {fill:#FEFEFE}
    .fil5 {fill:#FDFDFD}
    .fil6 {fill:#FDFDFB}
    .fil7 {fill:#FDFCFB}
    .fil8 {fill:#FDFCFA}
    .fil9 {fill:#FDFCFA}
    .fil10 {fill:#FCFBF9}
    .fil11 {fill:#FCFBF9}
    .fil12 {fill:#FCFBF8}
    .fil13 {fill:#FBFAF6}
    .fil14 {fill:#FBFAF6}
    .fil15 {fill:#FBF9F5}
    .fil16 {fill:#FBF9F4}
    .fil17 {fill:#FAF8F3}
    .fil18 {fill:#F9F7F2}
    .fil19 {fill:#F9F7F1}
    .fil20 {fill:#F9F6F1}
    .fil21 {fill:#F9F6F0}
    .fil22 {fill:#F8F6EF}
    .fil23 {fill:#F8F6EF}
    .fil24 {fill:#F8F4ED}
    .fil25 {fill:#F8F4EC}
    .fil26 {fill:#F7F4EC}
    .fil27 {fill:#F7F3EB}
    .fil28 {fill:#F7F3EB}
    .fil29 {fill:#F7F3EA}
    .fil30 {fill:#F6F2E9}
    .fil31 {fill:#F5F1E8}
    .fil32 {fill:#F5F1E8}
    .fil33 {fill:#F5F1E7}
    .fil34 {fill:#F5F1E6}
    .fil35 {fill:#F5F0E6}
    .fil36 {fill:#F5F0E5}
    .fil37 {fill:#F4EFE3}
    .fil38 {fill:#F4EFE3}
    .fil39 {fill:#F3EEE2}
    .fil40 {fill:#F3EEE2}
    .fil41 {fill:#F3EEE1}
    .fil42 {fill:#F3EEE0}
    .fil43 {fill:#F2EDDF}
    .fil44 {fill:#F1ECDF}
    .fil45 {fill:#F2ECDE}
    .fil46 {fill:#F2ECDD}
    .fil47 {fill:#F1EBDC}
    .fil48 {fill:#F1EBDC}
    .fil49 {fill:#F1EBDB}
    .fil50 {fill:#F0EADB}
    .fil51 {fill:#F0E9DA}
    .fil52 {fill:#F0E9D9}
    .fil53 {fill:#EFE9D9}
    .fil54 {fill:#EFE8D8}
    .fil55 {fill:#EFE8D8}
    .fil56 {fill:#EFE8D7}
    .fil57 {fill:#EEE7D6}
    .fil58 {fill:#EEE7D6}
    .fil59 {fill:#EEE6D5}
    .fil60 {fill:#EEE6D4}
    .fil61 {fill:#EEE6D4}
    .fil62 {fill:#EEE5D3}
    .fil63 {fill:#EDE5D2}
    .fil64 {fill:#ECE4D1}
    .fil65 {fill:#ECE4D0}
    .fil66 {fill:#ECE4D0}
    .fil67 {fill:#ECE4CF}
    .fil68 {fill:#EBE3CF}
    .fil69 {fill:#EBE3CE}
    .fil70 {fill:#EBE3CE}
    .fil71 {fill:#EBE3CD}
    .fil72 {fill:#EBE2CC}
    .fil73 {fill:#EAE1CC}
    .fil74 {fill:#EAE1CB}
    .fil75 {fill:#EAE1CB}
    .fil76 {fill:#EAE1CA}
    .fil77 {fill:#EAE0CA}
    .fil78 {fill:#E9E0C9}
    .fil79 {fill:#E8DFC8}
    .fil80 {fill:#E9DFC8}
    .fil81 {fill:#E9DFC7}
    .fil82 {fill:#E8DEC7}
    .fil83 {fill:#E9DEC6}
    .fil84 {fill:#E8DEC6}
    .fil85 {fill:#E8DEC5}
    .fil86 {fill:#E8DDC4}
    .fil87 {fill:#E7DDC4}
    .fil88 {fill:#E7DDC3}
    .fil89 {fill:#E6DCC3}
    .fil90 {fill:#E6DCC2}
    .fil91 {fill:#E6DBC1}
    .fil92 {fill:#E6DBC1}
    .fil93 {fill:#E6DAC0}
    .fil94 {fill:#E5DABE}
    .fil95 {fill:#E5DABE}
    .fil96 {fill:#E5D9BD}
    .fil97 {fill:#E5D9BD}
    .fil98 {fill:#E4D9BC}
    .fil99 {fill:#E4D8BB}
    .fil100 {fill:#E4D7BA}
    .fil101 {fill:#E4D7BA}
    .fil102 {fill:#E3D7B9}
    .fil103 {fill:#E3D6B8}
    .fil104 {fill:#E3D6B7}
    .fil105 {fill:#E3D6B7}
    .fil106 {fill:#E1D5B6}
    .fil107 {fill:#E1D5B5}
    .fil108 {fill:#E1D5B5}
    .fil109 {fill:#E1D4B4}
    .fil110 {fill:#E1D4B3}
    .fil111 {fill:#E1D3B2}
    .fil112 {fill:#E0D3B2}
    .fil113 {fill:#E0D2B1}
    .fil114 {fill:#DFD2B0}
    .fil115 {fill:#DFD2AF}
    .fil116 {fill:#DFD1AF}
    .fil117 {fill:#DFD1AE}
    .fil118 {fill:#DFD0AD}
    .fil119 {fill:#DECFAC}
    .fil120 {fill:#DECFAB}
    .fil121 {fill:#DECFAB}
    .fil122 {fill:#DECFAA}
    .fil123 {fill:#DDCEAA}
    .fil124 {fill:#DDCEA9}
    .fil125 {fill:#DDCEA8}
    .fil126 {fill:#DDCDA7}
    .fil127 {fill:#DDCDA7}
    .fil128 {fill:#DCCDA7}
    .fil129 {fill:#DCCDA6}
    .fil130 {fill:#DCCCA6}
    .fil131 {fill:#DCCCA5}
    .fil132 {fill:#DCCCA4}
    .fil133 {fill:#DBCBA4}
    .fil134 {fill:#DBCBA3}
    .fil135 {fill:#DBCBA3}
    .fil136 {fill:#DBCAA2}
    .fil137 {fill:#DBCAA1}
    .fil138 {fill:#DBCAA0}
    .fil139 {fill:#DAC9A0}
    .fil140 {fill:#D9C99F}
    .fil141 {fill:#D9C99E}
    .fil142 {fill:#D9C89E}
    .fil143 {fill:#D9C89E}
    .fil144 {fill:#D8C89E}
    .fil145 {fill:#D8C89D}
    .fil146 {fill:#D8C89C}
    .fil147 {fill:#D8C79C}
    .fil148 {fill:#D8C79B}
    .fil149 {fill:#D7C69A}
    .fil150 {fill:#D7C699}
    .fil151 {fill:#D7C598}
    .fil152 {fill:#D7C598}
    .fil153 {fill:#D7C597}
    .fil154 {fill:#D6C497}
    .fil155 {fill:#D6C496}
    .fil156 {fill:#D6C495}
    .fil157 {fill:#D6C495}
    .fil158 {fill:#D6C395}
    .fil159 {fill:#D5C394}
    .fil160 {fill:#D5C393}
    .fil161 {fill:#D5C292}
    .fil162 {fill:#D4C292}
    .fil163 {fill:#D4C291}
    .fil164 {fill:#D3C191}
    .fil165 {fill:#D3C190}
    .fil166 {fill:#D3C18F}
    .fil167 {fill:#D3C08F}
    .fil168 {fill:#D3C08E}
    .fil169 {fill:#D2BF8D}
    .fil170 {fill:#D2BF8C}
    .fil171 {fill:#D2BF8C}
    .fil172 {fill:#D2BE8C}
    .fil173 {fill:#D1BE8B}
    .fil174 {fill:#D1BE8A}
    .fil175 {fill:#D1BD89}
    .fil176 {fill:#D1BD88}
    .fil177 {fill:#D0BC87}
    .fil178 {fill:#D0BC87}
    .fil179 {fill:#D0BC86}
    .fil180 {fill:#D0BC86}
    .fil181 {fill:#CFBB85}
    .fil182 {fill:#CEBA84}
    .fil183 {fill:#CEBA84}
    .fil184 {fill:#CEBA83}
    .fil185 {fill:#CEB982}
    .fil186 {fill:#CEB982}
    .fil187 {fill:#CEB981}
    .fil188 {fill:#CDB880}
    .fil189 {fill:#CDB87F}
    .fil190 {fill:#CCB87F}
    .fil191 {fill:#CCB87E}
    .fil192 {fill:#CCB77E}
    .fil193 {fill:#CCB77D}
    .fil194 {fill:#CCB67C}
    .fil195 {fill:#CBB57B}
    .fil196 {fill:#CBB57A}
    .fil197 {fill:#CBB579}
    .fil198 {fill:#CAB479}
    .fil199 {fill:#CAB477}
    .fil200 {fill:#CAB377}
    .fil201 {fill:#CAB376}
    .fil202 {fill:#C9B376}
    .fil203 {fill:#C9B375}
    .fil204 {fill:#C9B275}
    .fil205 {fill:#C9B274}
    .fil206 {fill:#C8B273}
    .fil207 {fill:#C8B172}
    .fil2 {fill:#C8B171}
    .fil210 {fill:#8D7F58}
    .fil1 {fill:#8D7F58}
    .fil212 {fill:#36371D}
    .fil211 {fill:#86C27A}
    .fil209 {fill:#5A9E57}
    .fil3 {fill:white}
    .fil0 {fill:black;fill-rule:nonzero}
   ]]>
  </style>
     <clipPath id="id0">
      <path d="M2263.33 521.92c-52.32,0 -179.38,138.28 -250.4,272.82l-78.48 147.62 35.51 99.04c67.27,188.73 89.69,213.03 226.1,246.66 188.73,44.85 295.24,132.67 229.84,186.86 -22.43,20.56 -35.51,16.82 -78.48,-24.29 -33.64,-31.77 -82.22,-52.32 -143.88,-59.8 -138.28,-20.56 -220.49,-69.14 -257.87,-153.23 -48.58,-112.11 -196.2,-500.79 -265.34,-704.47 -71.01,-203.68 -151.36,-325.14 -256.02,-384.93 -78.48,-42.98 -218.63,-61.66 -308.32,-39.24 -89.7,22.42 -216.76,102.78 -287.77,183.12 -89.69,99.04 -422.31,648.41 -500.79,829.67 -74.74,166.31 -147.62,541.9 -216.76,1113.7l-13.08 99.04 422.31 0c231.71,0 422.31,-7.47 422.31,-14.95 0,-7.48 -69.14,-93.43 -151.36,-188.73 -179.39,-205.55 -231.71,-233.58 -373.73,-207.42 -80.35,14.95 -104.65,14.95 -127.07,-9.34 -42.98,-41.11 -7.47,-65.4 134.54,-89.69 110.25,-18.69 123.33,-24.29 115.85,-57.93 -5.61,-22.42 31.77,-170.05 82.22,-328.88 119.59,-383.07 147.62,-390.55 239.19,-69.14 28.03,99.04 56.06,175.65 61.67,166.31 7.47,-7.47 57.93,-166.31 112.12,-355.04 54.19,-186.86 112.12,-351.3 125.2,-362.51 39.24,-31.77 69.14,11.21 127.07,190.6 28.03,87.82 67.27,196.21 85.96,242.92 18.69,46.71 72.88,192.47 119.59,327.01 48.58,134.54 93.43,248.53 99.04,256 7.47,5.6 57.93,3.74 112.12,-7.47 84.09,-16.82 117.72,-14.95 205.55,13.08 130.8,41.11 175.65,85.96 310.19,312.06l108.38 183.12 278.43 0 278.43 0 0 -71.01c0,-91.56 -84.09,-650.28 -121.46,-812.85 -33.64,-142.02 -82.22,-276.56 -151.36,-414.84 -65.4,-127.07 -327.01,-513.87 -349.43,-513.87z"/>
     </clipPath>
 </defs>
 <g id="Слой_x0020_1">
  <metadata id="CorelCorpID_0Corel-Layer"/>
  <g id="_1929116274384">
   <path class="fil0" d="M1035.64 30.48c-184.99,63.53 -317.67,199.94 -489.58,500.79 -41.11,71.01 -102.78,179.39 -138.28,237.32 -205.55,340.09 -289.64,624.12 -368.12,1238.9 -50.45,386.81 -50.45,381.2 -13.08,401.75 22.42,11.21 568.06,18.69 1483.69,18.69 1685.5,0 1500.51,31.77 1468.74,-246.66 -87.83,-771.74 -175.65,-1057.64 -437.26,-1453.79 -192.47,-287.77 -213.03,-308.32 -312.06,-300.85 -54.19,3.74 -192.47,143.88 -259.74,261.61 -35.51,61.67 -71.01,113.98 -76.61,113.98 -5.6,0 -52.32,-110.25 -100.91,-244.79 -100.91,-272.82 -162.57,-381.2 -256,-452.21 -136.41,-104.65 -332.61,-134.54 -500.79,-74.74l0.01 0zm388.68 117.72c104.65,59.8 184.99,181.25 256,384.94 69.14,203.68 216.76,592.36 265.34,704.47 37.37,84.09 119.59,132.67 257.87,153.23 61.67,7.47 110.25,28.03 143.88,59.8 42.98,41.11 56.06,44.85 78.48,24.29 65.4,-54.19 -41.11,-142.02 -229.84,-186.86 -136.41,-33.64 -158.83,-57.93 -226.1,-246.66l-35.51 -99.04 78.48 -147.62c71.01,-134.54 198.07,-272.82 250.4,-272.82 22.42,0 284.03,386.81 349.43,513.87 69.14,138.28 117.72,272.82 151.36,414.84 37.37,162.57 121.46,721.29 121.46,812.85l0 71.01 -278.43 0 -278.43 0 -108.38 -183.12c-134.54,-226.1 -179.39,-270.95 -310.19,-312.06 -87.83,-28.03 -121.46,-29.9 -205.55,-13.08 -54.19,11.21 -104.65,13.08 -112.12,7.47 -5.6,-7.47 -50.45,-121.46 -99.04,-256 -46.71,-134.54 -100.91,-280.3 -119.59,-327.01 -18.69,-46.71 -57.93,-155.1 -85.96,-242.92 -57.93,-179.39 -87.83,-222.37 -127.07,-190.6 -13.08,11.21 -71.01,175.65 -125.2,362.51 -54.19,188.73 -104.65,347.57 -112.12,355.04 -5.6,9.34 -33.64,-67.27 -61.67,-166.31 -91.56,-321.41 -119.59,-313.93 -239.19,69.14 -50.45,158.83 -87.83,306.46 -82.22,328.88 7.47,33.64 -5.6,39.24 -115.85,57.93 -142.02,24.29 -177.52,48.58 -134.54,89.69 22.42,24.29 46.71,24.29 127.07,9.34 142.02,-26.16 194.34,1.87 373.73,207.42 82.22,95.3 151.36,181.25 151.36,188.73 0,7.47 -190.6,14.95 -422.31,14.95l-422.31 0 13.08 -99.04c69.14,-571.8 142.02,-947.39 216.76,-1113.7 78.48,-181.25 411.1,-730.63 500.79,-829.67 71.01,-80.35 198.07,-160.7 287.77,-183.12 89.69,-22.42 229.84,-3.74 308.32,39.24l0.02 -0.01zm-186.86 988.5c20.56,71.01 91.56,272.82 155.1,450.34l113.98 323.28 -211.16 211.16 -213.03 213.03 -52.32 -246.66c-63.53,-306.46 -57.93,-369.99 52.32,-725.03 44.85,-149.49 84.09,-289.64 84.09,-313.93 0,-78.48 29.9,-41.11 71.01,87.83zm-411.1 487.71c67.27,242.92 121.46,504.53 106.51,519.48 -5.6,5.6 -11.21,5.6 -14.95,1.87 -1.87,-3.74 -29.9,-42.98 -59.8,-87.83 -29.9,-44.85 -95.3,-117.72 -145.75,-164.44l-91.56 -82.22 61.67 -214.89c33.64,-117.72 67.27,-209.29 72.87,-199.94 7.47,7.47 39.24,110.25 71.01,227.97l0 -0.01zm1126.78 341.96c54.19,35.51 241.05,310.19 241.05,353.17 0,9.34 -214.89,14.95 -476.5,14.95 -261.61,0 -476.5,-3.74 -476.5,-7.47 0,-13.08 325.14,-334.48 373.73,-369.99 71.01,-50.45 256,-46.71 338.22,9.34l-0.01 0z"/>
   <path class="fil1 str0" d="M1115.98 108.97c-89.7,22.42 -216.76,102.78 -287.77,183.12 -89.69,99.04 -422.31,648.41 -500.79,829.67 -74.74,166.31 -147.62,541.9 -216.76,1113.7l-13.08 99.04 422.31 0c231.71,0 422.31,-7.47 422.31,-14.95 0,-7.48 -69.14,-93.43 -151.36,-188.73 -179.39,-205.55 -231.71,-233.58 -373.73,-207.42 -80.35,14.95 -104.65,14.95 -127.07,-9.34 -42.98,-41.11 -7.47,-65.4 134.54,-89.69 110.25,-18.69 123.33,-24.29 115.85,-57.93 -5.61,-22.42 31.77,-170.05 82.22,-328.88 119.59,-383.07 147.62,-390.55 239.19,-69.14 28.03,99.04 56.06,175.65 61.67,166.31 7.47,-7.47 57.93,-166.31 112.12,-355.04 54.19,-186.86 112.12,-351.3 125.2,-362.51 39.24,-31.77 69.14,11.21 127.07,190.6 28.03,87.82 67.27,196.21 85.96,242.92 18.69,46.71 72.88,192.47 119.59,327.01 48.58,134.54 93.43,248.53 99.04,256 7.47,5.6 57.93,3.74 112.12,-7.47 84.09,-16.82 117.72,-14.95 205.55,13.08 130.8,41.11 175.65,85.96 310.19,312.06l108.38 183.12 278.43 0 278.43 0 0 -71.01c0,-91.56 -84.09,-650.28 -121.46,-812.85 -33.64,-142.02 -82.22,-276.56 -151.36,-414.84 -65.4,-127.07 -327.01,-513.87 -349.43,-513.87 -52.32,0 -179.38,138.28 -250.4,272.82l-78.48 147.62 35.51 99.04c67.27,188.73 89.69,213.03 226.1,246.66 188.73,44.85 295.24,132.67 229.84,186.86 -22.43,20.56 -35.51,16.82 -78.48,-24.29 -33.64,-31.77 -82.22,-52.32 -143.88,-59.8 -138.28,-20.56 -220.49,-69.14 -257.87,-153.23 -48.58,-112.11 -196.2,-500.79 -265.34,-704.47 -71.01,-203.68 -151.36,-325.14 -256.02,-384.93 -78.48,-42.98 -218.63,-61.66 -308.32,-39.24z"/>
   <path class="fil1 str0" d="M2263.33 521.92c-52.32,0 -179.38,138.28 -250.4,272.82l-78.48 147.62 35.51 99.04c67.27,188.73 89.69,213.03 226.1,246.66 188.73,44.85 295.24,132.67 229.84,186.86 -22.43,20.56 -35.51,16.82 -78.48,-24.29 -33.64,-31.77 -82.22,-52.32 -143.88,-59.8 -138.28,-20.56 -220.49,-69.14 -257.87,-153.23 -48.58,-112.11 -196.2,-500.79 -265.34,-704.47 -71.01,-203.68 -151.36,-325.14 -256.02,-384.93 -78.48,-42.98 -218.63,-61.66 -308.32,-39.24 -89.7,22.42 -216.76,102.78 -287.77,183.12 -89.69,99.04 -422.31,648.41 -500.79,829.67 -74.74,166.31 -147.62,541.9 -216.76,1113.7l-13.08 99.04 422.31 0c231.71,0 422.31,-7.47 422.31,-14.95 0,-7.48 -69.14,-93.43 -151.36,-188.73 -179.39,-205.55 -231.71,-233.58 -373.73,-207.42 -80.35,14.95 -104.65,14.95 -127.07,-9.34 -42.98,-41.11 -7.47,-65.4 134.54,-89.69 110.25,-18.69 123.33,-24.29 115.85,-57.93 -5.61,-22.42 31.77,-170.05 82.22,-328.88 119.59,-383.07 147.62,-390.55 239.19,-69.14 28.03,99.04 56.06,175.65 61.67,166.31 7.47,-7.47 57.93,-166.31 112.12,-355.04 54.19,-186.86 112.12,-351.3 125.2,-362.51 39.24,-31.77 69.14,11.21 127.07,190.6 28.03,87.82 67.27,196.21 85.96,242.92 18.69,46.71 72.88,192.47 119.59,327.01 48.58,134.54 93.43,248.53 99.04,256 7.47,5.6 57.93,3.74 112.12,-7.47 84.09,-16.82 117.72,-14.95 205.55,13.08 130.8,41.11 175.65,85.96 310.19,312.06l108.38 183.12 278.43 0 278.43 0 0 -71.01c0,-91.56 -84.09,-650.28 -121.46,-812.85 -33.64,-142.02 -82.22,-276.56 -151.36,-414.84 -65.4,-127.07 -327.01,-513.87 -349.43,-513.87z"/>
   <g>
    <g style="clip-path:url(#id0)">
     <polygon class="fil2" points="97.58,86.55 2885.58,86.55 2885.58,2334.5 97.58,2334.5 "/>
     <polygon id="_1" class="fil3" points="1483.41,1210.41 1499.75,1210.41 1499.75,1223.51 1483.41,1223.51 "/>
     <path id="_2" class="fil4" d="M1486.14 1212.59l0 8.73 10.89 0 0 -8.73 -10.89 0zm-8.17 -6.55l27.23 0 0 21.83 -27.23 0 0 -21.83z"/>
     <path id="_3" class="fil4" d="M1480.69 1208.23l0 17.46 21.78 0 0 -17.46 -21.78 0zm-8.17 -6.55l38.12 0 0 30.56 -38.12 0 0 -30.56z"/>
     <path id="_4" class="fil5" d="M1475.24 1203.86l0 26.19 32.67 0 0 -26.19 -32.67 0zm-8.17 -6.55l49.01 0 0 39.29 -49.01 0 0 -39.29z"/>
     <path id="_5" class="fil5" d="M1469.8 1199.5l0 34.92 43.56 0 0 -34.92 -43.56 0zm-8.17 -6.55l59.9 0 0 48.02 -59.9 0 0 -48.02z"/>
     <path id="_6" class="fil6" d="M1464.35 1195.13l0 43.65 54.45 0 0 -43.65 -54.45 0zm-8.17 -6.55l70.79 0 0 56.75 -70.79 0 0 -56.75z"/>
     <path id="_7" class="fil7" d="M1458.91 1190.77l0 52.38 65.34 0 0 -52.38 -65.34 0zm-8.17 -6.55l81.68 0 0 65.49 -81.68 0 0 -65.49z"/>
     <path id="_8" class="fil8" d="M1453.46 1186.4l0 61.11 76.23 0 0 -61.11 -76.23 0zm-8.17 -6.55l92.57 0 0 74.21 -92.57 0 0 -74.21z"/>
     <path id="_9" class="fil9" d="M1448.02 1182.03l0 69.85 87.12 0 0 -69.85 -87.12 0zm-8.17 -6.55l103.46 0 0 82.94 -103.46 0 0 -82.94z"/>
     <path id="_10" class="fil10" d="M1442.57 1177.67l0 78.58 98.01 0 0 -78.58 -98.01 0zm-8.17 -6.55l114.35 0 0 91.67 -114.35 0 0 -91.67z"/>
     <path id="_11" class="fil11" d="M1437.13 1173.31l0 87.31 108.9 0 0 -87.31 -108.9 0zm-8.17 -6.55l125.24 0 0 100.4 -125.24 0 0 -100.4z"/>
     <path id="_12" class="fil12" d="M1431.68 1168.94l0 96.04 119.79 0 0 -96.04 -119.79 0zm-8.17 -6.55l136.13 0 0 109.13 -136.13 0 0 -109.13z"/>
     <path id="_13" class="fil12" d="M1426.24 1164.58l0 104.77 130.69 0 0 -104.77 -130.69 0zm-8.17 -6.55l147.02 0 0 117.86 -147.02 0 0 -117.86z"/>
     <path id="_14" class="fil13" d="M1420.79 1160.21l0 113.5 141.58 0 0 -113.5 -141.58 0zm-8.17 -6.55l157.91 0 0 126.6 -157.91 0 0 -126.6z"/>
     <path id="_15" class="fil13" d="M1415.35 1155.85l0 122.23 152.47 0 0 -122.23 -152.47 0zm-8.17 -6.55l168.8 0 0 135.33 -168.8 0 0 -135.33z"/>
     <path id="_16" class="fil14" d="M1409.9 1151.48l0 130.97 163.36 0 0 -130.97 -163.36 0zm-8.17 -6.55l179.69 0 0 144.06 -179.69 0 0 -144.06z"/>
     <path id="_17" class="fil15" d="M1404.46 1147.11l0 139.7 174.25 0 0 -139.7 -174.25 0zm-8.17 -6.55l190.58 0 0 152.79 -190.58 0 0 -152.79z"/>
     <path id="_18" class="fil15" d="M1399.01 1142.75l0 148.42 185.14 0 0 -148.42 -185.14 0zm-8.17 -6.55l201.47 0 0 161.52 -201.47 0 0 -161.52z"/>
     <path id="_19" class="fil16" d="M1393.57 1138.38l0 157.15 196.03 0 0 -157.15 -196.03 0zm-8.17 -6.55l212.36 0 0 170.25 -212.36 0 0 -170.25z"/>
     <path id="_20" class="fil16" d="M1388.12 1134.02l0 165.88 206.92 0 0 -165.88 -206.92 0zm-8.17 -6.55l223.25 0 0 178.98 -223.25 0 0 -178.98z"/>
     <path id="_21" class="fil17" d="M1382.68 1129.65l0 174.61 217.81 0 0 -174.61 -217.81 0zm-8.17 -6.55l234.14 0 0 187.72 -234.14 0 0 -187.72z"/>
     <path id="_22" class="fil18" d="M1377.23 1125.29l0 183.34 228.7 0 0 -183.34 -228.7 0zm-8.17 -6.55l245.03 0 0 196.45 -245.03 0 0 -196.45z"/>
     <path id="_23" class="fil18" d="M1371.79 1120.92l0 192.08 239.59 0 0 -192.08 -239.59 0zm-8.17 -6.55l255.92 0 0 205.18 -255.92 0 0 -205.18z"/>
     <path id="_24" class="fil19" d="M1366.34 1116.55l0 200.81 250.48 0 0 -200.81 -250.48 0zm-8.17 -6.55l266.82 0 0 213.9 -266.82 0 0 -213.9z"/>
     <path id="_25" class="fil20" d="M1360.9 1112.19l0 209.54 261.37 0 0 -209.54 -261.37 0zm-8.17 -6.55l277.71 0 0 222.63 -277.71 0 0 -222.63z"/>
     <path id="_26" class="fil21" d="M1355.45 1107.83l0 218.27 272.26 0 0 -218.27 -272.26 0zm-8.17 -6.55l288.61 0 0 231.36 -288.61 0 0 -231.36z"/>
     <path id="_27" class="fil22" d="M1350 1103.46l0 227 283.16 0 0 -227 -283.16 0zm-8.17 -6.55l299.5 0 0 240.09 -299.5 0 0 -240.09z"/>
     <path id="_28" class="fil22" d="M1344.55 1099.1l0 235.73 294.05 0 0 -235.73 -294.05 0zm-8.17 -6.55l310.39 0 0 248.83 -310.39 0 0 -248.83z"/>
     <path id="_29" class="fil23" d="M1339.11 1094.73l0 244.46 304.94 0 0 -244.46 -304.94 0zm-8.17 -6.55l321.28 0 0 257.56 -321.28 0 0 -257.56z"/>
     <path id="_30" class="fil24" d="M1333.66 1090.36l0 253.2 315.83 0 0 -253.2 -315.83 0zm-8.17 -6.55l332.17 0 0 266.29 -332.17 0 0 -266.29z"/>
     <path id="_31" class="fil24" d="M1328.22 1086l0 261.93 326.72 0 0 -261.93 -326.72 0zm-8.17 -6.55l343.06 0 0 275.02 -343.06 0 0 -275.02z"/>
     <path id="_32" class="fil25" d="M1322.77 1081.63l0 270.66 337.61 0 0 -270.66 -337.61 0zm-8.17 -6.55l353.95 0 0 283.75 -353.95 0 0 -283.75z"/>
     <path id="_33" class="fil26" d="M1317.33 1077.27l0 279.38 348.5 0 0 -279.38 -348.5 0zm-8.17 -6.55l364.84 0 0 292.48 -364.84 0 0 -292.48z"/>
     <path id="_34" class="fil27" d="M1311.88 1072.9l0 288.11 359.39 0 0 -288.11 -359.39 0zm-8.17 -6.55l375.73 0 0 301.21 -375.73 0 0 -301.21z"/>
     <path id="_35" class="fil28" d="M1306.44 1068.54l0 296.84 370.29 0 0 -296.84 -370.29 0zm-8.17 -6.55l386.62 0 0 309.95 -386.62 0 0 -309.95z"/>
     <path id="_36" class="fil28" d="M1300.99 1064.17l0 305.57 381.18 0 0 -305.57 -381.18 0zm-8.17 -6.55l397.51 0 0 318.68 -397.51 0 0 -318.68z"/>
     <path id="_37" class="fil29" d="M1295.55 1059.8l0 314.31 392.07 0 0 -314.31 -392.07 0zm-8.17 -6.55l408.4 0 0 327.41 -408.4 0 0 -327.41z"/>
     <path id="_38" class="fil30" d="M1290.1 1055.44l0 323.04 402.96 0 0 -323.04 -402.96 0zm-8.17 -6.55l419.29 0 0 336.14 -419.29 0 0 -336.14z"/>
     <path id="_39" class="fil31" d="M1284.66 1051.07l0 331.77 413.85 0 0 -331.77 -413.85 0zm-8.17 -6.55l430.18 0 0 344.87 -430.18 0 0 -344.87z"/>
     <path id="_40" class="fil32" d="M1279.21 1046.71l0 340.5 424.74 0 0 -340.5 -424.74 0zm-8.17 -6.55l441.07 0 0 353.59 -441.07 0 0 -353.59z"/>
     <path id="_41" class="fil32" d="M1273.77 1042.34l0 349.23 435.63 0 0 -349.23 -435.63 0zm-8.17 -6.55l451.96 0 0 362.32 -451.96 0 0 -362.32z"/>
     <path id="_42" class="fil33" d="M1268.32 1037.98l0 357.96 446.52 0 0 -357.96 -446.52 0zm-8.17 -6.55l462.85 0 0 371.06 -462.85 0 0 -371.06z"/>
     <path id="_43" class="fil34" d="M1262.88 1033.62l0 366.69 457.41 0 0 -366.69 -457.41 0zm-8.17 -6.55l473.74 0 0 379.79 -473.74 0 0 -379.79z"/>
     <path id="_44" class="fil35" d="M1257.43 1029.25l0 375.43 468.3 0 0 -375.43 -468.3 0zm-8.17 -6.55l484.63 0 0 388.52 -484.63 0 0 -388.52z"/>
     <path id="_45" class="fil36" d="M1251.99 1024.88l0 384.16 479.19 0 0 -384.16 -479.19 0zm-8.17 -6.55l495.52 0 0 397.25 -495.52 0 0 -397.25z"/>
     <path id="_46" class="fil36" d="M1246.54 1020.52l0 392.89 490.08 0 0 -392.89 -490.08 0zm-8.17 -6.55l506.42 0 0 405.98 -506.42 0 0 -405.98z"/>
     <path id="_47" class="fil37" d="M1241.1 1016.15l0 401.62 500.97 0 0 -401.62 -500.97 0zm-8.17 -6.55l517.31 0 0 414.71 -517.31 0 0 -414.71z"/>
     <path id="_48" class="fil37" d="M1235.65 1011.79l0 410.35 511.86 0 0 -410.35 -511.86 0zm-8.17 -6.55l528.2 0 0 423.44 -528.2 0 0 -423.44z"/>
     <path id="_49" class="fil38" d="M1230.2 1007.42l0 419.07 522.75 0 0 -419.07 -522.75 0zm-8.17 -6.55l539.09 0 0 432.18 -539.09 0 0 -432.18z"/>
     <path id="_50" class="fil39" d="M1224.76 1003.06l0 427.8 533.64 0 0 -427.8 -533.64 0zm-8.17 -6.55l549.98 0 0 440.91 -549.98 0 0 -440.91z"/>
     <path id="_51" class="fil40" d="M1219.31 998.69l0 436.54 544.53 0 0 -436.54 -544.53 0zm-8.17 -6.55l560.87 0 0 449.64 -560.87 0 0 -449.64z"/>
     <path id="_52" class="fil41" d="M1213.87 994.32l0 445.27 555.42 0 0 -445.27 -555.42 0zm-8.17 -6.55l571.76 0 0 458.37 -571.76 0 0 -458.37z"/>
     <path id="_53" class="fil41" d="M1208.42 989.96l0 454 566.31 0 0 -454 -566.31 0zm-8.17 -6.55l582.65 0 0 467.1 -582.65 0 0 -467.1z"/>
     <path id="_54" class="fil42" d="M1202.98 985.59l0 462.73 577.2 0 0 -462.73 -577.2 0zm-8.17 -6.55l593.54 0 0 475.83 -593.54 0 0 -475.83z"/>
     <path id="_55" class="fil43" d="M1197.53 981.23l0 471.46 588.09 0 0 -471.46 -588.09 0zm-8.17 -6.55l604.43 0 0 484.56 -604.43 0 0 -484.56z"/>
     <path id="_56" class="fil44" d="M1192.09 976.86l0 480.19 598.98 0 0 -480.19 -598.98 0zm-8.17 -6.55l615.32 0 0 493.29 -615.32 0 0 -493.29z"/>
     <path id="_57" class="fil45" d="M1186.64 972.5l0 488.92 609.87 0 0 -488.92 -609.87 0zm-8.17 -6.55l626.21 0 0 502.02 -626.21 0 0 -502.02z"/>
     <path id="_58" class="fil45" d="M1181.2 968.13l0 497.66 620.76 0 0 -497.66 -620.76 0zm-8.17 -6.55l637.1 0 0 510.75 -637.1 0 0 -510.75z"/>
     <path id="_59" class="fil46" d="M1175.75 963.77l0 506.39 631.66 0 0 -506.39 -631.66 0zm-8.17 -6.55l647.99 0 0 519.48 -647.99 0 0 -519.48z"/>
     <path id="_60" class="fil47" d="M1170.31 959.4l0 515.12 642.55 0 0 -515.12 -642.55 0zm-8.17 -6.55l658.88 0 0 528.21 -658.88 0 0 -528.21z"/>
     <path id="_61" class="fil48" d="M1164.86 955.04l0 523.85 653.44 0 0 -523.85 -653.44 0zm-8.17 -6.55l669.77 0 0 536.94 -669.77 0 0 -536.94z"/>
     <path id="_62" class="fil49" d="M1159.42 950.67l0 532.58 664.33 0 0 -532.58 -664.33 0zm-8.17 -6.55l680.66 0 0 545.67 -680.66 0 0 -545.67z"/>
     <path id="_63" class="fil50" d="M1153.97 946.31l0 541.31 675.22 0 0 -541.31 -675.22 0zm-8.17 -6.55l691.55 0 0 554.41 -691.55 0 0 -554.41z"/>
     <path id="_64" class="fil51" d="M1148.53 941.94l0 550.04 686.11 0 0 -550.04 -686.11 0zm-8.17 -6.55l702.44 0 0 563.14 -702.44 0 0 -563.14z"/>
     <path id="_65" class="fil52" d="M1143.08 937.57l0 558.78 697 0 0 -558.78 -697 0zm-8.17 -6.55l713.33 0 0 571.87 -713.33 0 0 -571.87z"/>
     <path id="_66" class="fil52" d="M1137.64 933.21l0 567.5 707.89 0 0 -567.5 -707.89 0zm-8.17 -6.55l724.22 0 0 580.6 -724.22 0 0 -580.6z"/>
     <path id="_67" class="fil53" d="M1132.19 928.84l0 576.23 718.78 0 0 -576.23 -718.78 0zm-8.17 -6.55l735.11 0 0 589.33 -735.11 0 0 -589.33z"/>
     <path id="_68" class="fil54" d="M1126.75 924.48l0 584.96 729.67 0 0 -584.96 -729.67 0zm-8.17 -6.55l746 0 0 598.06 -746 0 0 -598.06z"/>
     <path id="_69" class="fil55" d="M1121.3 920.11l0 593.69 740.56 0 0 -593.69 -740.56 0zm-8.17 -6.55l756.9 0 0 606.79 -756.9 0 0 -606.79z"/>
     <path id="_70" class="fil56" d="M1115.86 915.75l0 602.42 751.45 0 0 -602.42 -751.45 0zm-8.17 -6.55l767.79 0 0 615.53 -767.79 0 0 -615.53z"/>
     <path id="_71" class="fil57" d="M1110.41 911.38l0 611.15 762.34 0 0 -611.15 -762.34 0zm-8.17 -6.55l778.68 0 0 624.26 -778.68 0 0 -624.26z"/>
     <path id="_72" class="fil58" d="M1104.96 907.01l0 619.89 773.23 0 0 -619.89 -773.23 0zm-8.17 -6.55l789.57 0 0 632.98 -789.57 0 0 -632.98z"/>
     <path id="_73" class="fil59" d="M1099.52 902.65l0 628.62 784.12 0 0 -628.62 -784.12 0zm-8.17 -6.55l800.46 0 0 641.71 -800.46 0 0 -641.71z"/>
     <path id="_74" class="fil60" d="M1094.07 898.29l0 637.35 795.01 0 0 -637.35 -795.01 0zm-8.17 -6.55l811.35 0 0 650.44 -811.35 0 0 -650.44z"/>
     <path id="_75" class="fil61" d="M1088.63 893.92l0 646.08 805.9 0 0 -646.08 -805.9 0zm-8.17 -6.55l822.24 0 0 659.17 -822.24 0 0 -659.17z"/>
     <path id="_76" class="fil61" d="M1083.18 889.56l0 654.81 816.79 0 0 -654.81 -816.79 0zm-8.17 -6.55l833.13 0 0 667.9 -833.13 0 0 -667.9z"/>
     <path id="_77" class="fil62" d="M1077.74 885.19l0 663.54 827.68 0 0 -663.54 -827.68 0zm-8.17 -6.55l844.03 0 0 676.64 -844.03 0 0 -676.64z"/>
     <path id="_78" class="fil63" d="M1072.29 880.83l0 672.27 838.58 0 0 -672.27 -838.58 0zm-8.17 -6.55l854.92 0 0 685.37 -854.92 0 0 -685.37z"/>
     <path id="_79" class="fil63" d="M1066.84 876.46l0 681.01 849.47 0 0 -681.01 -849.47 0zm-8.17 -6.55l865.81 0 0 694.1 -865.81 0 0 -694.1z"/>
     <path id="_80" class="fil64" d="M1061.4 872.09l0 689.74 860.36 0 0 -689.74 -860.36 0zm-8.17 -6.55l876.7 0 0 702.83 -876.7 0 0 -702.83z"/>
     <path id="_81" class="fil65" d="M1055.95 867.73l0 698.47 871.26 0 0 -698.47 -871.26 0zm-8.17 -6.55l887.59 0 0 711.56 -887.59 0 0 -711.56z"/>
     <path id="_82" class="fil66" d="M1050.51 863.36l0 707.19 882.15 0 0 -707.19 -882.15 0zm-8.17 -6.55l898.48 0 0 720.29 -898.48 0 0 -720.29z"/>
     <path id="_83" class="fil67" d="M1045.06 859l0 715.92 893.04 0 0 -715.92 -893.04 0zm-8.17 -6.55l909.37 0 0 729.02 -909.37 0 0 -729.02z"/>
     <path id="_84" class="fil68" d="M1039.62 854.63l0 724.65 903.93 0 0 -724.65 -903.93 0zm-8.17 -6.55l920.26 0 0 737.76 -920.26 0 0 -737.76z"/>
     <path id="_85" class="fil69" d="M1034.17 850.27l0 733.38 914.82 0 0 -733.38 -914.82 0zm-8.17 -6.55l931.15 0 0 746.49 -931.15 0 0 -746.49z"/>
     <path id="_86" class="fil70" d="M1028.73 845.9l0 742.12 925.71 0 0 -742.12 -925.71 0zm-8.17 -6.55l942.04 0 0 755.22 -942.04 0 0 -755.22z"/>
     <path id="_87" class="fil71" d="M1023.28 841.53l0 750.85 936.6 0 0 -750.85 -936.6 0zm-8.17 -6.55l952.93 0 0 763.95 -952.93 0 0 -763.95z"/>
     <path id="_88" class="fil72" d="M1017.84 837.17l0 759.58 947.49 0 0 -759.58 -947.49 0zm-8.17 -6.55l963.82 0 0 772.67 -963.82 0 0 -772.67z"/>
     <path id="_89" class="fil73" d="M1012.39 832.8l0 768.31 958.38 0 0 -768.31 -958.38 0zm-8.17 -6.55l974.71 0 0 781.4 -974.71 0 0 -781.4z"/>
     <path id="_90" class="fil74" d="M1006.95 828.44l0 777.04 969.27 0 0 -777.04 -969.27 0zm-8.17 -6.55l985.6 0 0 790.13 -985.6 0 0 -790.13z"/>
     <path id="_91" class="fil74" d="M1001.5 824.08l0 785.77 980.16 0 0 -785.77 -980.16 0zm-8.17 -6.55l996.5 0 0 798.87 -996.5 0 0 -798.87z"/>
     <path id="_92" class="fil75" d="M996.06 819.71l0 794.5 991.05 0 0 -794.5 -991.05 0zm-8.17 -6.55l1007.39 0 0 807.6 -1007.39 0 0 -807.6z"/>
     <path id="_93" class="fil76" d="M990.61 815.34l0 803.24 1001.94 0 0 -803.24 -1001.94 0zm-8.17 -6.55l1018.28 0 0 816.33 -1018.28 0 0 -816.33z"/>
     <path id="_94" class="fil77" d="M985.16 810.98l0 811.97 1012.83 0 0 -811.97 -1012.83 0zm-8.17 -6.55l1029.17 0 0 825.06 -1029.17 0 0 -825.06z"/>
     <path id="_95" class="fil78" d="M979.72 806.61l0 820.7 1023.72 0 0 -820.7 -1023.72 0zm-8.17 -6.55l1040.06 0 0 833.79 -1040.06 0 0 -833.79z"/>
     <path id="_96" class="fil79" d="M974.27 802.25l0 829.43 1034.61 0 0 -829.43 -1034.61 0zm-8.17 -6.55l1050.95 0 0 842.52 -1050.95 0 0 -842.52z"/>
     <path id="_97" class="fil80" d="M968.83 797.88l0 838.15 1045.5 0 0 -838.15 -1045.5 0zm-8.17 -6.55l1061.84 0 0 851.25 -1061.84 0 0 -851.25z"/>
     <path id="_98" class="fil81" d="M963.38 793.52l0 846.88 1056.39 0 0 -846.88 -1056.39 0zm-8.17 -6.55l1072.73 0 0 859.99 -1072.73 0 0 -859.99z"/>
     <path id="_99" class="fil82" d="M957.94 789.15l0 855.61 1067.28 0 0 -855.61 -1067.28 0zm-8.17 -6.55l1083.62 0 0 868.72 -1083.62 0 0 -868.72z"/>
     <path id="_100" class="fil83" d="M952.49 784.78l0 864.35 1078.17 0 0 -864.35 -1078.17 0zm-8.17 -6.55l1094.51 0 0 877.45 -1094.51 0 0 -877.45z"/>
     <path id="_101" class="fil84" d="M947.05 780.42l0 873.08 1089.06 0 0 -873.08 -1089.06 0zm-8.17 -6.55l1105.4 0 0 886.18 -1105.4 0 0 -886.18z"/>
     <path id="_102" class="fil85" d="M941.6 776.05l0 881.81 1099.95 0 0 -881.81 -1099.95 0zm-8.17 -6.55l1116.29 0 0 894.91 -1116.29 0 0 -894.91z"/>
     <path id="_103" class="fil86" d="M936.16 771.69l0 890.54 1110.84 0 0 -890.54 -1110.84 0zm-8.17 -6.55l1127.18 0 0 903.64 -1127.18 0 0 -903.64z"/>
     <path id="_104" class="fil87" d="M930.71 767.32l0 899.27 1121.73 0 0 -899.27 -1121.73 0zm-8.17 -6.55l1138.07 0 0 912.36 -1138.07 0 0 -912.36z"/>
     <path id="_105" class="fil88" d="M925.27 762.96l0 908 1132.63 0 0 -908 -1132.63 0zm-8.17 -6.55l1148.96 0 0 921.1 -1148.96 0 0 -921.1z"/>
     <path id="_106" class="fil89" d="M919.82 758.6l0 916.73 1143.52 0 0 -916.73 -1143.52 0zm-8.17 -6.55l1159.85 0 0 929.83 -1159.85 0 0 -929.83z"/>
     <path id="_107" class="fil90" d="M914.38 754.23l0 925.47 1154.41 0 0 -925.47 -1154.41 0zm-8.17 -6.55l1170.74 0 0 938.56 -1170.74 0 0 -938.56z"/>
     <path id="_108" class="fil91" d="M908.93 749.86l0 934.2 1165.3 0 0 -934.2 -1165.3 0zm-8.17 -6.55l1181.63 0 0 947.29 -1181.63 0 0 -947.29z"/>
     <path id="_109" class="fil91" d="M903.49 745.5l0 942.93 1176.19 0 0 -942.93 -1176.19 0zm-8.17 -6.55l1192.52 0 0 956.02 -1192.52 0 0 -956.02z"/>
     <path id="_110" class="fil92" d="M898.04 741.13l0 951.66 1187.08 0 0 -951.66 -1187.08 0zm-8.17 -6.55l1203.41 0 0 964.75 -1203.41 0 0 -964.75z"/>
     <path id="_111" class="fil92" d="M892.6 736.77l0 960.39 1197.97 0 0 -960.39 -1197.97 0zm-8.17 -6.55l1214.3 0 0 973.48 -1214.3 0 0 -973.48z"/>
     <path id="_112" class="fil93" d="M887.15 732.4l0 969.12 1208.86 0 0 -969.12 -1208.86 0zm-8.17 -6.55l1225.19 0 0 982.22 -1225.19 0 0 -982.22z"/>
     <path id="_113" class="fil94" d="M881.71 728.04l0 977.84 1219.75 0 0 -977.84 -1219.75 0zm-8.17 -6.55l1236.08 0 0 990.95 -1236.08 0 0 -990.95z"/>
     <path id="_114" class="fil94" d="M876.26 723.67l0 986.58 1230.64 0 0 -986.58 -1230.64 0zm-8.17 -6.55l1246.97 0 0 999.68 -1246.97 0 0 -999.68z"/>
     <path id="_115" class="fil95" d="M870.82 719.3l0 995.31 1241.53 0 0 -995.31 -1241.53 0zm-8.17 -6.55l1257.87 0 0 1008.41 -1257.87 0 0 -1008.41z"/>
     <path id="_116" class="fil96" d="M865.37 714.94l0 1004.04 1252.42 0 0 -1004.04 -1252.42 0zm-8.17 -6.55l1268.76 0 0 1017.14 -1268.76 0 0 -1017.14z"/>
     <path id="_117" class="fil97" d="M859.93 710.57l0 1012.77 1263.31 0 0 -1012.77 -1263.31 0zm-8.17 -6.55l1279.65 0 0 1025.87 -1279.65 0 0 -1025.87z"/>
     <path id="_118" class="fil98" d="M854.48 706.21l0 1021.5 1274.2 0 0 -1021.5 -1274.2 0zm-8.17 -6.55l1290.54 0 0 1034.6 -1290.54 0 0 -1034.6z"/>
     <path id="_119" class="fil98" d="M849.03 701.84l0 1030.23 1285.09 0 0 -1030.23 -1285.09 0zm-8.17 -6.55l1301.43 0 0 1043.34 -1301.43 0 0 -1043.34z"/>
     <path id="_120" class="fil99" d="M843.59 697.48l0 1038.96 1295.98 0 0 -1038.96 -1295.98 0zm-8.17 -6.55l1312.32 0 0 1052.06 -1312.32 0 0 -1052.06z"/>
     <path id="_121" class="fil100" d="M838.14 693.11l0 1047.7 1306.87 0 0 -1047.7 -1306.87 0zm-8.17 -6.55l1323.21 0 0 1060.79 -1323.21 0 0 -1060.79z"/>
     <path id="_122" class="fil101" d="M832.7 688.75l0 1056.43 1317.76 0 0 -1056.43 -1317.76 0zm-8.17 -6.55l1334.1 0 0 1069.52 -1334.1 0 0 -1069.52z"/>
     <path id="_123" class="fil102" d="M827.25 684.38l0 1065.16 1328.65 0 0 -1065.16 -1328.65 0zm-8.17 -6.55l1344.99 0 0 1078.25 -1344.99 0 0 -1078.25z"/>
     <path id="_124" class="fil102" d="M821.81 680.02l0 1073.89 1339.54 0 0 -1073.89 -1339.54 0zm-8.17 -6.55l1355.88 0 0 1086.98 -1355.88 0 0 -1086.98z"/>
     <path id="_125" class="fil103" d="M816.36 675.65l0 1082.62 1350.43 0 0 -1082.62 -1350.43 0zm-8.17 -6.55l1366.77 0 0 1095.71 -1366.77 0 0 -1095.71z"/>
     <path id="_126" class="fil103" d="M810.92 671.29l0 1091.35 1361.32 0 0 -1091.35 -1361.32 0zm-8.17 -6.55l1377.66 0 0 1104.45 -1377.66 0 0 -1104.45z"/>
     <path id="_127" class="fil104" d="M805.47 666.92l0 1100.08 1372.21 0 0 -1100.08 -1372.21 0zm-8.17 -6.55l1388.55 0 0 1113.18 -1388.55 0 0 -1113.18z"/>
     <path id="_128" class="fil105" d="M800.03 662.55l0 1108.82 1383.11 0 0 -1108.82 -1383.11 0zm-8.17 -6.55l1399.45 0 0 1121.91 -1399.45 0 0 -1121.91z"/>
     <path id="_129" class="fil106" d="M794.58 658.19l0 1117.55 1394 0 0 -1117.55 -1394 0zm-8.17 -6.55l1410.34 0 0 1130.64 -1410.34 0 0 -1130.64z"/>
     <path id="_130" class="fil107" d="M789.13 653.82l0 1126.27 1404.9 0 0 -1126.27 -1404.9 0zm-8.17 -6.55l1421.23 0 0 1139.37 -1421.23 0 0 -1139.37z"/>
     <path id="_131" class="fil108" d="M783.69 649.46l0 1135 1415.79 0 0 -1135 -1415.79 0zm-8.17 -6.55l1432.12 0 0 1148.1 -1432.12 0 0 -1148.1z"/>
     <path id="_132" class="fil108" d="M778.24 645.09l0 1143.73 1426.68 0 0 -1143.73 -1426.68 0zm-8.17 -6.55l1443.01 0 0 1156.83 -1443.01 0 0 -1156.83z"/>
     <path id="_133" class="fil109" d="M772.8 640.73l0 1152.46 1437.57 0 0 -1152.46 -1437.57 0zm-8.17 -6.55l1453.9 0 0 1165.57 -1453.9 0 0 -1165.57z"/>
     <path id="_134" class="fil109" d="M767.35 636.36l0 1161.19 1448.46 0 0 -1161.19 -1448.46 0zm-8.17 -6.55l1464.79 0 0 1174.3 -1464.79 0 0 -1174.3z"/>
     <path id="_135" class="fil110" d="M761.91 631.99l0 1169.93 1459.35 0 0 -1169.93 -1459.35 0zm-8.17 -6.55l1475.68 0 0 1183.03 -1475.68 0 0 -1183.03z"/>
     <path id="_136" class="fil111" d="M756.46 627.63l0 1178.66 1470.24 0 0 -1178.66 -1470.24 0zm-8.17 -6.55l1486.57 0 0 1191.75 -1486.57 0 0 -1191.75z"/>
     <path id="_137" class="fil112" d="M751.02 623.26l0 1187.39 1481.13 0 0 -1187.39 -1481.13 0zm-8.17 -6.55l1497.47 0 0 1200.48 -1497.47 0 0 -1200.48z"/>
     <path id="_138" class="fil113" d="M745.57 618.9l0 1196.12 1492.02 0 0 -1196.12 -1492.02 0zm-8.17 -6.55l1508.36 0 0 1209.21 -1508.36 0 0 -1209.21z"/>
     <path id="_139" class="fil113" d="M740.13 614.54l0 1204.85 1502.91 0 0 -1204.85 -1502.91 0zm-8.17 -6.55l1519.25 0 0 1217.94 -1519.25 0 0 -1217.94z"/>
     <path id="_140" class="fil114" d="M734.68 610.17l0 1213.58 1513.8 0 0 -1213.58 -1513.8 0zm-8.17 -6.55l1530.14 0 0 1226.68 -1530.14 0 0 -1226.68z"/>
     <path id="_141" class="fil115" d="M729.23 605.81l0 1222.31 1524.69 0 0 -1222.31 -1524.69 0zm-8.17 -6.55l1541.03 0 0 1235.41 -1541.03 0 0 -1235.41z"/>
     <path id="_142" class="fil116" d="M723.79 601.44l0 1231.05 1535.58 0 0 -1231.05 -1535.58 0zm-8.17 -6.55l1551.92 0 0 1244.14 -1551.92 0 0 -1244.14z"/>
     <path id="_143" class="fil117" d="M718.34 597.07l0 1239.78 1546.47 0 0 -1239.78 -1546.47 0zm-8.17 -6.55l1562.81 0 0 1252.87 -1562.81 0 0 -1252.87z"/>
     <path id="_144" class="fil117" d="M712.9 592.71l0 1248.51 1557.36 0 0 -1248.51 -1557.36 0zm-8.17 -6.55l1573.7 0 0 1261.6 -1573.7 0 0 -1261.6z"/>
     <path id="_145" class="fil118" d="M707.45 588.34l0 1257.23 1568.25 0 0 -1257.23 -1568.25 0zm-8.17 -6.55l1584.59 0 0 1270.33 -1584.59 0 0 -1270.33z"/>
     <path id="_146" class="fil119" d="M702.01 583.98l0 1265.96 1579.14 0 0 -1265.96 -1579.14 0zm-8.17 -6.55l1595.48 0 0 1279.06 -1595.48 0 0 -1279.06z"/>
     <path id="_147" class="fil119" d="M696.56 579.61l0 1274.69 1590.03 0 0 -1274.69 -1590.03 0zm-8.17 -6.55l1606.37 0 0 1287.8 -1606.37 0 0 -1287.8z"/>
     <path id="_148" class="fil120" d="M691.12 575.25l0 1283.42 1600.92 0 0 -1283.42 -1600.92 0zm-8.17 -6.55l1617.26 0 0 1296.53 -1617.26 0 0 -1296.53z"/>
     <path id="_149" class="fil120" d="M685.67 570.88l0 1292.16 1611.81 0 0 -1292.16 -1611.81 0zm-8.17 -6.55l1628.15 0 0 1305.26 -1628.15 0 0 -1305.26z"/>
     <path id="_150" class="fil121" d="M680.23 566.51l0 1300.89 1622.71 0 0 -1300.89 -1622.71 0zm-8.17 -6.55l1639.04 0 0 1313.99 -1639.04 0 0 -1313.99z"/>
     <path id="_151" class="fil122" d="M674.78 562.15l0 1309.62 1633.6 0 0 -1309.62 -1633.6 0zm-8.17 -6.55l1649.93 0 0 1322.72 -1649.93 0 0 -1322.72z"/>
     <path id="_152" class="fil123" d="M669.34 557.78l0 1318.35 1644.49 0 0 -1318.35 -1644.49 0zm-8.17 -6.55l1660.82 0 0 1331.44 -1660.82 0 0 -1331.44z"/>
     <path id="_153" class="fil124" d="M663.89 553.42l0 1327.08 1655.38 0 0 -1327.08 -1655.38 0zm-8.17 -6.55l1671.71 0 0 1340.17 -1671.71 0 0 -1340.17z"/>
     <path id="_154" class="fil125" d="M658.45 549.06l0 1335.81 1666.27 0 0 -1335.81 -1666.27 0zm-8.17 -6.55l1682.6 0 0 1348.91 -1682.6 0 0 -1348.91z"/>
     <path id="_155" class="fil126" d="M653 544.69l0 1344.54 1677.16 0 0 -1344.54 -1677.16 0zm-8.17 -6.55l1693.49 0 0 1357.64 -1693.49 0 0 -1357.64z"/>
     <path id="_156" class="fil127" d="M647.56 540.32l0 1353.28 1688.05 0 0 -1353.28 -1688.05 0zm-8.17 -6.55l1704.38 0 0 1366.37 -1704.38 0 0 -1366.37z"/>
     <path id="_157" class="fil128" d="M642.11 535.96l0 1362.01 1698.94 0 0 -1362.01 -1698.94 0zm-8.17 -6.55l1715.27 0 0 1375.1 -1715.27 0 0 -1375.1z"/>
     <path id="_158" class="fil129" d="M636.67 531.59l0 1370.74 1709.83 0 0 -1370.74 -1709.83 0zm-8.17 -6.55l1726.16 0 0 1383.83 -1726.16 0 0 -1383.83z"/>
     <path id="_159" class="fil130" d="M631.22 527.23l0 1379.47 1720.72 0 0 -1379.47 -1720.72 0zm-8.17 -6.55l1737.05 0 0 1392.56 -1737.05 0 0 -1392.56z"/>
     <path id="_160" class="fil131" d="M625.78 522.86l0 1388.2 1731.61 0 0 -1388.2 -1731.61 0zm-8.17 -6.55l1747.94 0 0 1401.29 -1747.94 0 0 -1401.29z"/>
     <path id="_161" class="fil132" d="M620.33 518.5l0 1396.92 1742.5 0 0 -1396.92 -1742.5 0zm-8.17 -6.55l1758.84 0 0 1410.03 -1758.84 0 0 -1410.03z"/>
     <path id="_162" class="fil133" d="M614.89 514.13l0 1405.65 1753.39 0 0 -1405.65 -1753.39 0zm-8.17 -6.55l1769.73 0 0 1418.76 -1769.73 0 0 -1418.76z"/>
     <path id="_163" class="fil134" d="M609.44 509.76l0 1414.39 1764.28 0 0 -1414.39 -1764.28 0zm-8.17 -6.55l1780.62 0 0 1427.49 -1780.62 0 0 -1427.49z"/>
     <path id="_164" class="fil135" d="M603.99 505.4l0 1423.12 1775.17 0 0 -1423.12 -1775.17 0zm-8.17 -6.55l1791.51 0 0 1436.22 -1791.51 0 0 -1436.22z"/>
     <path id="_165" class="fil136" d="M598.55 501.03l0 1431.85 1786.06 0 0 -1431.85 -1786.06 0zm-8.17 -6.55l1802.4 0 0 1444.95 -1802.4 0 0 -1444.95z"/>
     <path id="_166" class="fil137" d="M593.1 496.67l0 1440.58 1796.95 0 0 -1440.58 -1796.95 0zm-8.17 -6.55l1813.29 0 0 1453.68 -1813.29 0 0 -1453.68z"/>
     <path id="_167" class="fil137" d="M587.66 492.3l0 1449.31 1807.84 0 0 -1449.31 -1807.84 0zm-8.17 -6.55l1824.18 0 0 1462.4 -1824.18 0 0 -1462.4z"/>
     <path id="_168" class="fil138" d="M582.21 487.94l0 1458.04 1818.73 0 0 -1458.04 -1818.73 0zm-8.17 -6.55l1835.07 0 0 1471.14 -1835.07 0 0 -1471.14z"/>
     <path id="_169" class="fil139" d="M576.77 483.58l0 1466.77 1829.62 0 0 -1466.77 -1829.62 0zm-8.17 -6.55l1845.96 0 0 1479.87 -1845.96 0 0 -1479.87z"/>
     <path id="_170" class="fil140" d="M571.32 479.21l0 1475.51 1840.51 0 0 -1475.51 -1840.51 0zm-8.17 -6.55l1856.85 0 0 1488.6 -1856.85 0 0 -1488.6z"/>
     <path id="_171" class="fil141" d="M565.88 474.84l0 1484.24 1851.4 0 0 -1484.24 -1851.4 0zm-8.17 -6.55l1867.74 0 0 1497.33 -1867.74 0 0 -1497.33z"/>
     <path id="_172" class="fil142" d="M560.43 470.48l0 1492.97 1862.29 0 0 -1492.97 -1862.29 0zm-8.17 -6.55l1878.63 0 0 1506.06 -1878.63 0 0 -1506.06z"/>
     <path id="_173" class="fil143" d="M554.99 466.11l0 1501.7 1873.18 0 0 -1501.7 -1873.18 0zm-8.17 -6.55l1889.52 0 0 1514.79 -1889.52 0 0 -1514.79z"/>
     <path id="_174" class="fil144" d="M549.54 461.75l0 1510.43 1884.08 0 0 -1510.43 -1884.08 0zm-8.17 -6.55l1900.41 0 0 1523.52 -1900.41 0 0 -1523.52z"/>
     <path id="_175" class="fil145" d="M544.1 457.38l0 1519.16 1894.97 0 0 -1519.16 -1894.97 0zm-8.17 -6.55l1911.3 0 0 1532.26 -1911.3 0 0 -1532.26z"/>
     <path id="_176" class="fil146" d="M538.65 453.02l0 1527.89 1905.86 0 0 -1527.89 -1905.86 0zm-8.17 -6.55l1922.19 0 0 1540.99 -1922.19 0 0 -1540.99z"/>
     <path id="_177" class="fil147" d="M533.21 448.65l0 1536.63 1916.75 0 0 -1536.63 -1916.75 0zm-8.17 -6.55l1933.08 0 0 1549.72 -1933.08 0 0 -1549.72z"/>
     <path id="_178" class="fil148" d="M527.76 444.28l0 1545.35 1927.64 0 0 -1545.35 -1927.64 0zm-8.17 -6.55l1943.97 0 0 1558.45 -1943.97 0 0 -1558.45z"/>
     <path id="_179" class="fil148" d="M522.32 439.92l0 1554.08 1938.53 0 0 -1554.08 -1938.53 0zm-8.17 -6.55l1954.87 0 0 1567.18 -1954.87 0 0 -1567.18z"/>
     <path id="_180" class="fil149" d="M516.87 435.55l0 1562.81 1949.42 0 0 -1562.81 -1949.42 0zm-8.17 -6.55l1965.76 0 0 1575.91 -1965.76 0 0 -1575.91z"/>
     <path id="_181" class="fil150" d="M511.42 431.19l0 1571.54 1960.32 0 0 -1571.54 -1960.32 0zm-8.17 -6.55l1976.65 0 0 1584.64 -1976.65 0 0 -1584.64z"/>
     <path id="_182" class="fil150" d="M505.98 426.82l0 1580.27 1971.21 0 0 -1580.27 -1971.21 0zm-8.17 -6.55l1987.54 0 0 1593.38 -1987.54 0 0 -1593.38z"/>
     <path id="_183" class="fil151" d="M500.53 422.46l0 1589 1982.1 0 0 -1589 -1982.1 0zm-8.17 -6.55l1998.44 0 0 1602.11 -1998.44 0 0 -1602.11z"/>
     <path id="_184" class="fil152" d="M495.09 418.09l0 1597.74 1992.99 0 0 -1597.74 -1992.99 0zm-8.17 -6.55l2009.33 0 0 1610.83 -2009.33 0 0 -1610.83z"/>
     <path id="_185" class="fil153" d="M489.64 413.72l0 1606.47 2003.88 0 0 -1606.47 -2003.88 0zm-8.17 -6.55l2020.22 0 0 1619.56 -2020.22 0 0 -1619.56z"/>
     <path id="_186" class="fil154" d="M484.19 409.36l0 1615.2 2014.77 0 0 -1615.2 -2014.77 0zm-8.17 -6.55l2031.11 0 0 1628.29 -2031.11 0 0 -1628.29z"/>
     <path id="_187" class="fil155" d="M478.75 405l0 1623.93 2025.66 0 0 -1623.93 -2025.66 0zm-8.17 -6.55l2042 0 0 1637.02 -2042 0 0 -1637.02z"/>
     <path id="_188" class="fil156" d="M473.3 400.63l0 1632.66 2036.55 0 0 -1632.66 -2036.55 0zm-8.17 -6.55l2052.89 0 0 1645.75 -2052.89 0 0 -1645.75z"/>
     <path id="_189" class="fil157" d="M467.86 396.27l0 1641.39 2047.44 0 0 -1641.39 -2047.44 0zm-8.17 -6.55l2063.78 0 0 1654.49 -2063.78 0 0 -1654.49z"/>
     <path id="_190" class="fil158" d="M462.41 391.9l0 1650.12 2058.33 0 0 -1650.12 -2058.33 0zm-8.17 -6.55l2074.67 0 0 1663.22 -2074.67 0 0 -1663.22z"/>
     <path id="_191" class="fil159" d="M456.97 387.53l0 1658.86 2069.22 0 0 -1658.86 -2069.22 0zm-8.17 -6.55l2085.56 0 0 1671.95 -2085.56 0 0 -1671.95z"/>
     <path id="_192" class="fil159" d="M451.52 383.17l0 1667.59 2080.11 0 0 -1667.59 -2080.11 0zm-8.17 -6.55l2096.45 0 0 1680.68 -2096.45 0 0 -1680.68z"/>
     <path id="_193" class="fil160" d="M446.08 378.8l0 1676.31 2091 0 0 -1676.31 -2091 0zm-8.17 -6.55l2107.34 0 0 1689.41 -2107.34 0 0 -1689.41z"/>
     <path id="_194" class="fil161" d="M440.63 374.44l0 1685.04 2101.89 0 0 -1685.04 -2101.89 0zm-8.17 -6.55l2118.23 0 0 1698.14 -2118.23 0 0 -1698.14z"/>
     <path id="_195" class="fil162" d="M435.19 370.07l0 1693.77 2112.78 0 0 -1693.77 -2112.78 0zm-8.17 -6.55l2129.12 0 0 1706.87 -2129.12 0 0 -1706.87z"/>
     <path id="_196" class="fil163" d="M429.74 365.71l0 1702.5 2123.68 0 0 -1702.5 -2123.68 0zm-8.17 -6.55l2140.01 0 0 1715.61 -2140.01 0 0 -1715.61z"/>
     <path id="_197" class="fil164" d="M424.3 361.34l0 1711.23 2134.57 0 0 -1711.23 -2134.57 0zm-8.17 -6.55l2150.9 0 0 1724.34 -2150.9 0 0 -1724.34z"/>
     <path id="_198" class="fil165" d="M418.85 356.97l0 1719.97 2145.46 0 0 -1719.97 -2145.46 0zm-8.17 -6.55l2161.79 0 0 1733.07 -2161.79 0 0 -1733.07z"/>
     <path id="_199" class="fil166" d="M413.41 352.61l0 1728.7 2156.35 0 0 -1728.7 -2156.35 0zm-8.17 -6.55l2172.68 0 0 1741.8 -2172.68 0 0 -1741.8z"/>
     <path id="_200" class="fil166" d="M407.96 348.24l0 1737.43 2167.24 0 0 -1737.43 -2167.24 0zm-8.17 -6.55l2183.57 0 0 1750.52 -2183.57 0 0 -1750.52z"/>
     <path id="_201" class="fil167" d="M402.52 343.88l0 1746.16 2178.13 0 0 -1746.16 -2178.13 0zm-8.17 -6.55l2194.46 0 0 1759.25 -2194.46 0 0 -1759.25z"/>
     <path id="_202" class="fil168" d="M397.07 339.52l0 1754.89 2189.02 0 0 -1754.89 -2189.02 0zm-8.17 -6.55l2205.35 0 0 1767.98 -2205.35 0 0 -1767.98z"/>
     <path id="_203" class="fil169" d="M391.63 335.15l0 1763.62 2199.91 0 0 -1763.62 -2199.91 0zm-8.17 -6.55l2216.24 0 0 1776.72 -2216.24 0 0 -1776.72z"/>
     <path id="_204" class="fil170" d="M386.18 330.79l0 1772.35 2210.8 0 0 -1772.35 -2210.8 0zm-8.17 -6.55l2227.13 0 0 1785.45 -2227.13 0 0 -1785.45z"/>
     <path id="_205" class="fil170" d="M380.74 326.42l0 1781.09 2221.69 0 0 -1781.09 -2221.69 0zm-8.17 -6.55l2238.02 0 0 1794.18 -2238.02 0 0 -1794.18z"/>
     <path id="_206" class="fil171" d="M375.29 322.05l0 1789.82 2232.58 0 0 -1789.82 -2232.58 0zm-8.17 -6.55l2248.92 0 0 1802.91 -2248.92 0 0 -1802.91z"/>
     <path id="_207" class="fil172" d="M369.85 317.69l0 1798.55 2243.47 0 0 -1798.55 -2243.47 0zm-8.17 -6.55l2259.81 0 0 1811.64 -2259.81 0 0 -1811.64z"/>
     <path id="_208" class="fil173" d="M364.4 313.32l0 1807.28 2254.36 0 0 -1807.28 -2254.36 0zm-8.17 -6.55l2270.7 0 0 1820.37 -2270.7 0 0 -1820.37z"/>
     <path id="_209" class="fil174" d="M358.95 308.96l0 1816 2265.25 0 0 -1816 -2265.25 0zm-8.17 -6.55l2281.59 0 0 1829.1 -2281.59 0 0 -1829.1z"/>
     <path id="_210" class="fil174" d="M353.51 304.59l0 1824.73 2276.14 0 0 -1824.73 -2276.14 0zm-8.17 -6.55l2292.48 0 0 1837.84 -2292.48 0 0 -1837.84z"/>
     <path id="_211" class="fil175" d="M348.06 300.23l0 1833.46 2287.03 0 0 -1833.46 -2287.03 0zm-8.17 -6.55l2303.37 0 0 1846.57 -2303.37 0 0 -1846.57z"/>
     <path id="_212" class="fil175" d="M342.62 295.86l0 1842.2 2297.92 0 0 -1842.2 -2297.92 0zm-8.17 -6.55l2314.26 0 0 1855.3 -2314.26 0 0 -1855.3z"/>
     <path id="_213" class="fil176" d="M337.17 291.49l0 1850.93 2308.81 0 0 -1850.93 -2308.81 0zm-8.17 -6.55l2325.15 0 0 1864.03 -2325.15 0 0 -1864.03z"/>
     <path id="_214" class="fil177" d="M331.73 287.13l0 1859.66 2319.7 0 0 -1859.66 -2319.7 0zm-8.17 -6.55l2336.04 0 0 1872.76 -2336.04 0 0 -1872.76z"/>
     <path id="_215" class="fil178" d="M326.28 282.76l0 1868.39 2330.59 0 0 -1868.39 -2330.59 0zm-8.17 -6.55l2346.93 0 0 1881.49 -2346.93 0 0 -1881.49z"/>
     <path id="_216" class="fil179" d="M320.84 278.4l0 1877.12 2341.48 0 0 -1877.12 -2341.48 0zm-8.17 -6.55l2357.82 0 0 1890.21 -2357.82 0 0 -1890.21z"/>
     <path id="_217" class="fil179" d="M315.39 274.04l0 1885.85 2352.37 0 0 -1885.85 -2352.37 0zm-8.17 -6.55l2368.71 0 0 1898.95 -2368.71 0 0 -1898.95z"/>
     <path id="_218" class="fil180" d="M309.95 269.67l0 1894.58 2363.26 0 0 -1894.58 -2363.26 0zm-8.17 -6.55l2379.6 0 0 1907.68 -2379.6 0 0 -1907.68z"/>
     <path id="_219" class="fil181" d="M304.5 265.3l0 1903.32 2374.15 0 0 -1903.32 -2374.15 0zm-8.17 -6.55l2390.49 0 0 1916.41 -2390.49 0 0 -1916.41z"/>
     <path id="_220" class="fil182" d="M299.06 260.94l0 1912.05 2385.05 0 0 -1912.05 -2385.05 0zm-8.17 -6.55l2401.38 0 0 1925.14 -2401.38 0 0 -1925.14z"/>
     <path id="_221" class="fil183" d="M293.61 256.57l0 1920.78 2395.94 0 0 -1920.78 -2395.94 0zm-8.17 -6.55l2412.27 0 0 1933.87 -2412.27 0 0 -1933.87z"/>
     <path id="_222" class="fil183" d="M288.17 252.21l0 1929.51 2406.83 0 0 -1929.51 -2406.83 0zm-8.17 -6.55l2423.16 0 0 1942.6 -2423.16 0 0 -1942.6z"/>
     <path id="_223" class="fil184" d="M282.72 247.84l0 1938.24 2417.72 0 0 -1938.24 -2417.72 0zm-8.17 -6.55l2434.05 0 0 1951.33 -2434.05 0 0 -1951.33z"/>
     <path id="_224" class="fil185" d="M277.28 243.48l0 1946.97 2428.61 0 0 -1946.97 -2428.61 0zm-8.17 -6.55l2444.94 0 0 1960.07 -2444.94 0 0 -1960.07z"/>
     <path id="_225" class="fil186" d="M271.83 239.11l0 1955.69 2439.5 0 0 -1955.69 -2439.5 0zm-8.17 -6.55l2455.83 0 0 1968.8 -2455.83 0 0 -1968.8z"/>
     <path id="_226" class="fil187" d="M266.39 234.74l0 1964.43 2450.39 0 0 -1964.43 -2450.39 0zm-8.17 -6.55l2466.72 0 0 1977.53 -2466.72 0 0 -1977.53z"/>
     <path id="_227" class="fil187" d="M260.94 230.38l0 1973.16 2461.28 0 0 -1973.16 -2461.28 0zm-8.17 -6.55l2477.61 0 0 1986.26 -2477.61 0 0 -1986.26z"/>
     <path id="_228" class="fil188" d="M255.5 226.01l0 1981.89 2472.17 0 0 -1981.89 -2472.17 0zm-8.17 -6.55l2488.5 0 0 1994.99 -2488.5 0 0 -1994.99z"/>
     <path id="_229" class="fil189" d="M250.05 221.65l0 1990.62 2483.06 0 0 -1990.62 -2483.06 0zm-8.17 -6.55l2499.39 0 0 2003.72 -2499.39 0 0 -2003.72z"/>
     <path id="_230" class="fil189" d="M244.61 217.28l0 1999.35 2493.95 0 0 -1999.35 -2493.95 0zm-8.17 -6.55l2510.3 0 0 2012.45 -2510.3 0 0 -2012.45z"/>
     <path id="_231" class="fil190" d="M239.16 212.92l0 2008.08 2504.84 0 0 -2008.08 -2504.84 0zm-8.17 -6.55l2521.19 0 0 2021.19 -2521.19 0 0 -2021.19z"/>
     <path id="_232" class="fil191" d="M233.71 208.55l0 2016.81 2515.74 0 0 -2016.81 -2515.74 0zm-8.17 -6.55l2532.08 0 0 2029.91 -2532.08 0 0 -2029.91z"/>
     <path id="_233" class="fil192" d="M228.26 204.18l0 2025.55 2526.63 0 0 -2025.55 -2526.63 0zm-8.17 -6.55l2542.97 0 0 2038.64 -2542.97 0 0 -2038.64z"/>
     <path id="_234" class="fil193" d="M222.82 199.82l0 2034.28 2537.52 0 0 -2034.28 -2537.52 0zm-8.17 -6.55l2553.86 0 0 2047.37 -2553.86 0 0 -2047.37z"/>
     <path id="_235" class="fil193" d="M217.37 195.46l0 2043.01 2548.41 0 0 -2043.01 -2548.41 0zm-8.17 -6.55l2564.75 0 0 2056.1 -2564.75 0 0 -2056.1z"/>
     <path id="_236" class="fil194" d="M211.93 191.09l0 2051.74 2559.3 0 0 -2051.74 -2559.3 0zm-8.17 -6.55l2575.64 0 0 2064.83 -2575.64 0 0 -2064.83z"/>
     <path id="_237" class="fil195" d="M206.48 186.73l0 2060.47 2570.19 0 0 -2060.47 -2570.19 0zm-8.17 -6.55l2586.53 0 0 2073.56 -2586.53 0 0 -2073.56z"/>
     <path id="_238" class="fil195" d="M201.04 182.36l0 2069.2 2581.08 0 0 -2069.2 -2581.08 0zm-8.17 -6.55l2597.42 0 0 2082.3 -2597.42 0 0 -2082.3z"/>
     <path id="_239" class="fil196" d="M195.59 178l0 2077.93 2591.97 0 0 -2077.93 -2591.97 0zm-8.17 -6.55l2608.31 0 0 2091.03 -2608.31 0 0 -2091.03z"/>
     <path id="_240" class="fil196" d="M190.15 173.63l0 2086.67 2602.86 0 0 -2086.67 -2602.86 0zm-8.17 -6.55l2619.2 0 0 2099.76 -2619.2 0 0 -2099.76z"/>
     <path id="_241" class="fil197" d="M184.7 169.26l0 2095.4 2613.75 0 0 -2095.4 -2613.75 0zm-8.17 -6.55l2630.09 0 0 2108.49 -2630.09 0 0 -2108.49z"/>
     <path id="_242" class="fil198" d="M179.26 164.9l0 2104.12 2624.65 0 0 -2104.12 -2624.65 0zm-8.17 -6.55l2640.98 0 0 2117.22 -2640.98 0 0 -2117.22z"/>
     <path id="_243" class="fil198" d="M173.81 160.53l0 2112.85 2635.54 0 0 -2112.85 -2635.54 0zm-8.17 -6.55l2651.87 0 0 2125.95 -2651.87 0 0 -2125.95z"/>
     <path id="_244" class="fil199" d="M168.37 156.17l0 2121.58 2646.43 0 0 -2121.58 -2646.43 0zm-8.17 -6.55l2662.76 0 0 2134.68 -2662.76 0 0 -2134.68z"/>
     <path id="_245" class="fil199" d="M162.92 151.8l0 2130.31 2657.32 0 0 -2130.31 -2657.32 0zm-8.17 -6.55l2673.65 0 0 2143.42 -2673.65 0 0 -2143.42z"/>
     <path id="_246" class="fil200" d="M157.48 147.44l0 2139.04 2668.21 0 0 -2139.04 -2668.21 0zm-8.17 -6.55l2684.54 0 0 2152.15 -2684.54 0 0 -2152.15z"/>
     <path id="_247" class="fil201" d="M152.03 143.07l0 2147.78 2679.1 0 0 -2147.78 -2679.1 0zm-8.17 -6.55l2695.43 0 0 2160.88 -2695.43 0 0 -2160.88z"/>
     <path id="_248" class="fil202" d="M146.59 138.7l0 2156.51 2689.99 0 0 -2156.51 -2689.99 0zm-8.17 -6.55l2706.32 0 0 2169.6 -2706.32 0 0 -2169.6z"/>
     <path id="_249" class="fil203" d="M141.14 134.34l0 2165.24 2700.88 0 0 -2165.24 -2700.88 0zm-8.17 -6.55l2717.21 0 0 2178.33 -2717.21 0 0 -2178.33z"/>
     <path id="_250" class="fil204" d="M135.7 129.98l0 2173.97 2711.77 0 0 -2173.97 -2711.77 0zm-8.17 -6.55l2728.1 0 0 2187.06 -2728.1 0 0 -2187.06z"/>
     <path id="_251" class="fil205" d="M130.25 125.61l0 2182.7 2722.66 0 0 -2182.7 -2722.66 0zm-8.17 -6.55l2738.99 0 0 2195.79 -2738.99 0 0 -2195.79z"/>
     <path id="_252" class="fil206" d="M124.81 121.25l0 2191.43 2733.55 0 0 -2191.43 -2733.55 0zm-8.17 -6.55l2749.89 0 0 2204.53 -2749.89 0 0 -2204.53z"/>
     <path id="_253" class="fil206" d="M119.36 116.88l0 2200.16 2744.44 0 0 -2200.16 -2744.44 0zm-8.17 -6.55l2760.78 0 0 2213.26 -2760.78 0 0 -2213.26z"/>
     <path id="_254" class="fil207" d="M113.92 112.51l0 2208.9 2755.33 0 0 -2208.9 -2755.33 0zm-8.17 -6.55l2771.67 0 0 2221.99 -2771.67 0 0 -2221.99z"/>
     <path id="_255" class="fil207" d="M108.47 108.15l0 2217.63 2766.22 0 0 -2217.63 -2766.22 0zm-8.17 -6.55l2782.56 0 0 2230.72 -2782.56 0 0 -2230.72z"/>
     <path id="_256" class="fil2" d="M103.02 103.78l0 2226.36 2777.11 0 0 -2226.36 -2777.11 0zm-5.45 -4.36l2788 0 0 2235.08 -2788 0 0 -2235.08z"/>
    </g>
    <path id="_257" class="fil208 str0" d="M2263.33 521.92c-52.32,0 -179.38,138.28 -250.4,272.82l-78.48 147.62 35.51 99.04c67.27,188.73 89.69,213.03 226.1,246.66 188.73,44.85 295.24,132.67 229.84,186.86 -22.43,20.56 -35.51,16.82 -78.48,-24.29 -33.64,-31.77 -82.22,-52.32 -143.88,-59.8 -138.28,-20.56 -220.49,-69.14 -257.87,-153.23 -48.58,-112.11 -196.2,-500.79 -265.34,-704.47 -71.01,-203.68 -151.36,-325.14 -256.02,-384.93 -78.48,-42.98 -218.63,-61.66 -308.32,-39.24 -89.7,22.42 -216.76,102.78 -287.77,183.12 -89.69,99.04 -422.31,648.41 -500.79,829.67 -74.74,166.31 -147.62,541.9 -216.76,1113.7l-13.08 99.04 422.31 0c231.71,0 422.31,-7.47 422.31,-14.95 0,-7.48 -69.14,-93.43 -151.36,-188.73 -179.39,-205.55 -231.71,-233.58 -373.73,-207.42 -80.35,14.95 -104.65,14.95 -127.07,-9.34 -42.98,-41.11 -7.47,-65.4 134.54,-89.69 110.25,-18.69 123.33,-24.29 115.85,-57.93 -5.61,-22.42 31.77,-170.05 82.22,-328.88 119.59,-383.07 147.62,-390.55 239.19,-69.14 28.03,99.04 56.06,175.65 61.67,166.31 7.47,-7.47 57.93,-166.31 112.12,-355.04 54.19,-186.86 112.12,-351.3 125.2,-362.51 39.24,-31.77 69.14,11.21 127.07,190.6 28.03,87.82 67.27,196.21 85.96,242.92 18.69,46.71 72.88,192.47 119.59,327.01 48.58,134.54 93.43,248.53 99.04,256 7.47,5.6 57.93,3.74 112.12,-7.47 84.09,-16.82 117.72,-14.95 205.55,13.08 130.8,41.11 175.65,85.96 310.19,312.06l108.38 183.12 278.43 0 278.43 0 0 -71.01c0,-91.56 -84.09,-650.28 -121.46,-812.85 -33.64,-142.02 -82.22,-276.56 -151.36,-414.84 -65.4,-127.07 -327.01,-513.87 -349.43,-513.87z"/>
   </g>
   <path class="fil209 str0" d="M1506.53 1910.32l-113.98 -323.28c-63.54,-177.51 -134.54,-379.33 -155.1,-450.34 -41.11,-128.94 -71.01,-166.31 -71.01,-87.83 0,24.29 -39.24,164.44 -84.09,313.93 -110.25,355.04 -115.85,418.57 -52.32,725.03l52.32 246.66 213.03 -213.03 211.16 -211.16z"/>
   <path class="fil210 str0" d="M932.86 2143.89c14.95,-14.95 -39.24,-276.56 -106.51,-519.47 -31.77,-117.72 -63.54,-220.5 -71.01,-227.97 -5.6,-9.34 -39.24,82.22 -72.87,199.94l-61.67 214.89 91.56 82.22c50.45,46.71 115.86,119.59 145.75,164.44 29.9,44.85 57.93,84.09 59.8,87.83 3.73,3.73 9.34,3.73 14.95,-1.87z"/>
   <path class="fil211 str0" d="M932.86 2143.89c14.95,-14.95 -39.24,-276.56 -106.51,-519.47 -31.77,-117.72 -63.54,-220.5 -71.01,-227.97 -5.6,-9.34 -39.24,82.22 -72.87,199.94l-61.67 214.89 91.56 82.22c50.45,46.71 115.86,119.59 145.75,164.44 29.9,44.85 57.93,84.09 59.8,87.83 3.73,3.73 9.34,3.73 14.95,-1.87z"/>
   <path class="fil212 str0" d="M1614.92 1957.03c-48.59,35.51 -373.73,356.91 -373.73,369.99 0,3.73 214.89,7.47 476.5,7.47 261.61,0 476.5,-5.6 476.5,-14.95 0,-42.98 -186.86,-317.67 -241.05,-353.17 -82.22,-56.06 -267.21,-59.8 -338.22,-9.34z"/>
  </g>
 </g>
</svg>
