<?xml version="1.0" encoding="UTF-8"?>
<!DOCTYPE svg PUBLIC "-//W3C//DTD SVG 1.1//EN" "http://www.w3.org/Graphics/SVG/1.1/DTD/svg11.dtd">
<!-- Creator: CorelDRAW -->
<svg xmlns="http://www.w3.org/2000/svg" xml:space="preserve" width="52.3668mm" height="46.549mm" version="1.1" style="shape-rendering:geometricPrecision; text-rendering:geometricPrecision; image-rendering:optimizeQuality; fill-rule:evenodd; clip-rule:evenodd"
viewBox="0 0 4465.98 3969.82"
 xmlns:xlink="http://www.w3.org/1999/xlink"
 xmlns:xodm="http://www.corel.com/coreldraw/odm/2003">
 <defs>
  <style type="text/css">
   <![CDATA[
    .str0 {stroke:#2B2A29;stroke-width:17.06;stroke-miterlimit:22.9256}
    .fil1 {fill:#2C3E50}
    .fil4 {fill:#CAB376}
    .fil0 {fill:black;fill-rule:nonzero}
    .fil2 {fill:url(#id0)}
    .fil3 {fill:url(#id1)}
   ]]>
  </style>
  <linearGradient id="id0" gradientUnits="userSpaceOnUse" x1="1706.13" y1="3110.11" x2="3487.21" y2="3110.11">
   <stop offset="0" style="stop-opacity:1; stop-color:#2C3E50"/>
   <stop offset="1" style="stop-opacity:1; stop-color:white"/>
  </linearGradient>
  <radialGradient id="id1" gradientUnits="objectBoundingBox" cx="50%" cy="50%" r="50%" fx="50%" fy="50%">
   <stop offset="0" style="stop-opacity:1; stop-color:white"/>
   <stop offset="1" style="stop-opacity:1; stop-color:#CAB376"/>
  </radialGradient>
 </defs>
 <g id="Слой_x0020_1">
  <metadata id="CorelCorpID_0Corel-Layer"/>
  <g id="_1965074583456">
   <path class="fil0" d="M442.52 50.39c-54.15,42.12 -72.21,99.29 -90.25,279.8 -15.04,159.45 -57.16,303.87 -147.42,505.44 -117.33,267.76 -204.85,400.46 -204.85,677.25 0,162.46 90.52,216.3 99.55,243.38 12.03,27.08 84.24,81.23 165.47,123.35l147.42 72.21 0 971.77c0,716.04 9.02,980.79 36.1,1007.87 51.14,51.14 3486.94,51.14 3538.09,0 21.06,-21.06 36.1,-129.37 36.1,-279.8 0,-213.61 9.02,-255.73 63.18,-303.87 99.29,-90.25 147.42,-207.6 147.42,-367.05 0,-120.34 -21.06,-177.51 -105.3,-303.87 -102.29,-147.42 -105.3,-159.45 -105.3,-439.26 0,-246.71 6.02,-288.83 54.15,-303.87 162.46,-48.13 267.76,-126.36 330.95,-252.72 102.29,-198.56 78.22,-333.95 -141.41,-791.25 -159.45,-336.96 -183.52,-409.17 -183.52,-562.6 0,-126.36 -15.04,-192.55 -57.16,-243.7l-57.16 -72.21 -1729.93 -9.02c-1633.66,-6.02 -1729.93,-3.01 -1796.12,48.13l0 0.01zm3471.9 207.6c39.11,243.7 222.64,219.63 -1696.84,219.63l-1714.89 0 0 -99.29c0,-51.14 9.02,-126.36 18.05,-165.47l18.05 -66.19 1678.79 0 1675.78 0 21.06 111.32 -0.01 0zm-2831.07 391.11c-21.06,117.33 -267.76,914.61 -300.86,980.79 -45.13,90.25 -198.56,171.49 -321.92,171.49 -117.33,0 -318.91,-207.6 -318.91,-324.93 0,-51.14 69.2,-252.72 153.44,-448.28 84.24,-195.56 159.45,-370.06 165.47,-385.1 15.04,-36.1 631.8,-30.09 622.78,6.02l-0.01 0.01zm694.98 -18.05c9.02,9.02 3.01,171.49 -15.04,361.03 -54.15,601.71 -54.15,601.71 -165.47,713.03 -96.28,96.28 -114.33,102.29 -255.73,90.25 -111.32,-12.03 -174.5,-36.1 -240.68,-102.29 -87.25,-81.23 -90.25,-99.29 -75.21,-237.67 9.02,-84.24 36.1,-213.61 60.18,-285.82 24.07,-75.21 66.19,-225.64 93.27,-336.96l51.14 -201.57 138.4 -9.02c204.58,-12.03 391.11,-9.02 409.17,9.02l-0.01 0zm698 -9.02c21.06,12.03 51.14,207.6 75.21,466.33 45.13,505.44 33.1,556.59 -144.41,658.88 -126.36,75.21 -309.88,45.13 -430.23,-66.19 -81.23,-75.21 -90.25,-102.29 -90.25,-267.76 0,-99.29 15.04,-315.9 33.1,-481.37l36.1 -300.86 228.65 -12.03c126.36,-3.01 234.67,-12.03 243.7,-15.04 9.02,-3.01 30.09,6.02 48.13,18.05l0 -0.01zm532.51 6.01l246.71 0 39.11 156.44c132.38,547.56 165.47,749.14 132.38,821.34 -45.13,96.28 -207.6,195.56 -318.91,195.56 -105.3,0 -264.75,-93.27 -312.89,-186.53 -39.11,-75.21 -156.44,-977.79 -129.37,-1001.86 9.02,-9.02 33.1,-9.02 57.16,0 21.06,9.02 150.43,15.04 285.82,15.04l-0.01 0zm1134.23 349c99.29,210.6 180.52,415.18 180.52,454.29 0,162.46 -180.52,370.06 -321.92,370.06 -123.35,0 -267.76,-81.23 -330.95,-183.52 -51.14,-87.25 -249.72,-842.41 -249.72,-950.71 0,-24.07 81.23,-39.11 249.72,-48.13 135.39,-3.01 255.73,-12.03 270.77,-15.04 12.03,-3.01 102.29,165.47 201.57,373.06zm-2136.09 899.56c99.29,51.14 318.91,60.18 436.25,15.04 42.12,-15.04 108.31,-66.19 147.42,-111.32l69.2 -81.23 102.29 96.28c99.29,93.27 249.72,156.44 376.07,156.44 105.3,0 273.78,-81.23 336.96,-165.47l60.18 -78.22 78.22 75.21c45.13,39.11 120.34,87.25 168.48,108.31l90.25 36.1 0 282.81 0 282.81 -117.33 0c-117.33,0 -120.34,-3.01 -129.37,-114.33l-9.02 -111.32 -1031.95 -9.02 -1034.95 -6.02 12.03 517.48c12.03,583.67 39.11,685.95 246.71,908.59 60.18,63.18 108.31,120.34 108.31,126.36 0,6.02 -303.87,12.03 -676.93,12.03l-676.93 0 0 -932.66 0 -929.65 126.36 -57.16c72.21,-33.1 153.44,-87.25 186.53,-120.34l57.16 -63.18 78.22 84.24c81.23,87.25 252.72,153.44 388.1,153.44 108.31,0 273.78,-90.25 342.98,-183.52l63.18 -84.24 57.16 75.21c33.1,39.11 99.29,93.27 144.41,117.33l-0.01 0.01zm1468.19 953.72c-12.03,394.13 -18.05,442.26 -93.27,583.67 -156.44,306.87 -339.97,403.15 -779.22,403.15 -355.01,0 -499.42,-51.14 -688.96,-246.71 -165.47,-171.49 -207.6,-327.94 -207.6,-782.23l0 -385.1 890.54 0 890.54 0 -12.03 427.22 0 0.01zm532.51 -75.21c90.25,132.38 99.29,303.87 24.07,430.23 -63.18,108.31 -156.44,150.43 -324.93,150.43 -132.38,0 -132.38,-3.01 -105.3,-78.22 18.05,-42.12 30.09,-198.56 30.09,-345.98l0 -267.76 150.43 0c138.4,0 153.44,9.02 225.64,111.32l0 -0.01zm-135.38 896.56l0 165.47 -321.92 0 -324.93 -3.01 93.27 -81.23c54.15,-45.13 120.34,-117.33 147.42,-165.47 48.13,-72.21 69.2,-81.23 228.65,-81.23l177.51 0 0 165.47z"/>
   <path class="fil1 str0" d="M2217.6 146.67l-1678.79 0 -18.05 66.19c-9.03,39.11 -18.05,114.33 -18.05,165.47l0 99.29 1714.89 0c1919.47,0 1735.95,24.07 1696.84,-219.63l-21.06 -111.32 -1675.78 0z"/>
   <path class="fil1 str0" d="M1083.36 649.09c9.02,-36.11 -607.73,-42.12 -622.78,-6.02 -6.02,15.04 -81.23,189.54 -165.47,385.1 -84.24,195.56 -153.44,397.14 -153.44,448.28 0,117.33 201.57,324.93 318.91,324.93 123.35,0 276.78,-81.23 321.92,-171.49 33.1,-66.19 279.8,-863.46 300.87,-980.8z"/>
   <path class="fil1 str0" d="M1230.77 631.05l-51.14 201.57c-27.08,111.32 -69.2,261.75 -93.27,336.96 -24.08,72.21 -51.15,201.57 -60.18,285.82 -15.04,138.39 -12.04,156.44 75.21,237.67 66.19,66.19 129.37,90.25 240.68,102.29 141.4,12.03 159.45,6.02 255.73,-90.25 111.32,-111.32 111.32,-111.32 165.47,-713.03 18.05,-189.54 24.07,-352 15.05,-361.03 -18.05,-18.05 -204.58,-21.06 -409.17,-9.02l-138.4 9.02z"/>
   <path class="fil1 str0" d="M1955.85 631.06l-36.1 300.86c-18.05,165.47 -33.1,382.08 -33.1,481.37 0,165.47 9.02,192.55 90.25,267.76 120.34,111.32 303.86,141.4 430.23,66.19 177.51,-102.29 189.54,-153.43 144.41,-658.88 -24.07,-258.74 -54.15,-454.3 -75.21,-466.33 -18.05,-12.03 -39.11,-21.06 -48.13,-18.05 -9.02,3.01 -117.33,12.03 -243.7,15.04l-228.65 12.03z"/>
   <path class="fil1 str0" d="M2665.87 612.99c-27.08,24.07 90.25,926.65 129.37,1001.86 48.14,93.27 207.6,186.53 312.89,186.53 111.31,0 273.77,-99.29 318.91,-195.56 33.1,-72.2 0,-273.78 -132.38,-821.34l-39.11 -156.44 -246.7 0c-135.39,0 -264.76,-6.02 -285.82,-15.04 -24.07,-9.02 -48.14,-9.02 -57.16,0z"/>
   <path class="fil1 str0" d="M3421.01 667.16c0,108.31 198.57,863.46 249.72,950.71 63.19,102.29 207.6,183.52 330.95,183.52 141.4,0 321.92,-207.6 321.92,-370.06 0,-39.11 -81.23,-243.7 -180.52,-454.29 -99.29,-207.59 -189.54,-376.07 -201.57,-373.06 -15.04,3.01 -135.39,12.03 -270.77,15.04 -168.48,9.02 -249.72,24.07 -249.72,48.13z"/>
   <path class="fil2 str0" d="M3487.21 2403.1l-890.54 0 -890.54 0 0 385.1c0,454.29 42.12,610.74 207.6,782.23 189.54,195.56 333.95,246.71 688.96,246.71 439.25,0 622.78,-96.28 779.22,-403.15 75.21,-141.41 81.23,-189.54 93.27,-583.67l12.03 -427.22z"/>
   <path class="fil3 str0" d="M1561.72 2770.13l-12.03 -517.48 1034.95 6.02 1031.95 9.02 9.02 111.32c9.02,111.32 12.03,114.33 129.37,114.33l117.33 0 0 -282.81 0 -282.81 -90.25 -36.1c-48.14,-21.06 -123.35,-69.2 -168.48,-108.31l-78.22 -75.21 -60.18 78.22c-63.18,84.24 -231.66,165.47 -336.96,165.47 -126.35,0 -276.78,-63.18 -376.07,-156.44l-102.29 -96.28 -69.2 81.23c-39.11,45.13 -105.3,96.28 -147.42,111.32 -117.34,45.13 -336.96,36.1 -436.24,-15.05 -45.12,-24.07 -111.31,-78.22 -144.41,-117.33l-57.16 -75.21 -63.18 84.24c-69.2,93.27 -234.67,183.52 -342.98,183.52 -135.39,0 -306.87,-66.19 -388.1,-153.44l-78.22 -84.24 -57.16 63.18c-33.09,33.09 -114.32,87.24 -186.53,120.34l-126.36 57.16 0 929.65 0 932.66 676.93 0c373.06,0 676.93,-6.01 676.93,-12.03 0,-6.02 -48.13,-63.19 -108.31,-126.36 -207.6,-222.64 -234.67,-324.93 -246.71,-908.59z"/>
   <path class="fil4 str0" d="M3694.8 3486.19c-159.45,0 -180.52,9.02 -228.65,81.23 -27.08,48.14 -93.27,120.34 -147.42,165.47l-93.27 81.23 324.93 3.01 321.92 0 0 -165.47 0 -165.47 -177.51 0z"/>
   <path class="fil4 str0" d="M3601.53 3257.54c-27.08,75.21 -27.08,78.22 105.3,78.22 168.48,0 261.75,-42.12 324.93,-150.43 75.22,-126.35 66.19,-297.85 -24.07,-430.22 -72.2,-102.3 -87.24,-111.32 -225.64,-111.32l-150.43 0 0 267.76c0,147.42 -12.03,303.86 -30.09,345.98z"/>
  </g>
 </g>
</svg>
