<?xml version="1.0" standalone="no"?>
<!DOCTYPE svg PUBLIC "-//W3C//DTD SVG 20010904//EN"
 "http://www.w3.org/TR/2001/REC-SVG-20010904/DTD/svg10.dtd">
<svg version="1.0" xmlns="http://www.w3.org/2000/svg"
 width="512.000000pt" height="512.000000pt" viewBox="0 0 512.000000 512.000000"
 preserveAspectRatio="xMidYMid meet">

<g transform="translate(0.000000,512.000000) scale(0.100000,-0.100000)"
fill="#000000" stroke="none">
<path d="M2435 4749 c-93 -21 -168 -77 -677 -499 -580 -482 -614 -512 -657
-579 -127 -197 -96 -460 73 -626 158 -155 391 -188 585 -84 31 16 110 74 176
128 l120 99 5 -721 c5 -702 6 -724 26 -777 78 -207 260 -334 474 -333 192 2
357 101 441 265 60 118 59 108 59 865 0 381 4 693 8 693 4 0 59 -43 122 -96
166 -138 268 -184 410 -184 284 1 519 254 496 535 -11 135 -64 244 -165 337
-140 129 -1086 906 -1134 931 -29 15 -77 34 -107 42 -60 16 -192 18 -255 4z
m212 -328 c33 -17 1038 -849 1085 -898 73 -76 60 -202 -27 -269 -47 -36 -135
-45 -184 -19 -18 9 -137 103 -264 208 -299 248 -281 235 -332 243 -53 7 -118
-20 -150 -64 -20 -26 -20 -47 -25 -917 -3 -492 -9 -899 -14 -910 -33 -73 -106
-125 -176 -125 -51 0 -113 32 -146 76 l-29 37 -5 897 -5 896 -25 37 c-35 52
-98 81 -155 73 -50 -8 -31 6 -334 -245 -129 -106 -250 -200 -268 -207 -43 -18
-95 -18 -140 1 -50 21 -72 42 -94 90 -36 79 -20 153 47 216 66 61 1041 867
1066 880 56 30 117 30 175 0z"/>
<path d="M598 1680 c-49 -15 -86 -49 -104 -95 -14 -38 -16 -69 -11 -197 7
-205 34 -323 107 -468 148 -294 429 -500 750 -550 55 -8 395 -10 1265 -8 1189
3 1190 3 1267 25 189 54 332 136 464 268 135 134 222 286 270 470 21 80 27
133 31 262 5 152 4 164 -16 207 -42 87 -144 117 -225 66 -61 -37 -76 -81 -76
-233 0 -159 -18 -243 -77 -366 -36 -75 -59 -108 -121 -171 -124 -124 -252
-188 -422 -209 -117 -15 -2180 -15 -2287 0 -166 23 -293 87 -413 208 -141 142
-200 300 -200 535 0 111 -3 136 -21 172 -32 67 -114 105 -181 84z"/>
</g>
</svg>
