<?xml version="1.0" standalone="no"?>
<!DOCTYPE svg PUBLIC "-//W3C//DTD SVG 20010904//EN"
 "http://www.w3.org/TR/2001/REC-SVG-20010904/DTD/svg10.dtd">
<svg version="1.0" xmlns="http://www.w3.org/2000/svg"
 width="512.000000pt" height="512.000000pt" viewBox="0 0 512.000000 512.000000"
 preserveAspectRatio="xMidYMid meet">

<g transform="translate(0.000000,512.000000) scale(0.100000,-0.100000)"
fill="#000000" stroke="none">
<path d="M2371 4764 c-240 -40 -480 -160 -661 -331 -515 -485 -535 -1304 -43
-1810 183 -188 424 -319 680 -370 109 -21 346 -23 453 -4 165 29 347 103 495
199 92 60 279 247 342 342 152 228 217 444 217 720 0 166 -14 258 -61 400
-126 381 -444 692 -831 814 -175 55 -408 71 -591 40z m461 -272 c111 -30 213
-75 304 -134 91 -60 234 -198 286 -279 151 -230 206 -483 162 -740 -73 -428
-405 -760 -833 -833 -517 -88 -1018 238 -1152 751 -27 102 -36 296 -19 400 36
226 135 418 298 575 151 146 310 230 518 273 101 21 335 14 436 -13z"/>
<path d="M2398 4280 c-299 -74 -531 -313 -592 -612 -23 -110 -21 -183 4 -208
26 -26 56 -25 84 3 19 19 24 37 28 103 11 153 76 292 193 409 117 117 256 182
409 193 66 4 84 9 103 28 28 28 29 58 3 84 -26 26 -124 26 -232 0z"/>
<path d="M1882 3294 c-47 -33 -18 -114 41 -114 26 0 67 40 67 65 0 23 -41 65
-64 65 -12 0 -32 -7 -44 -16z"/>
<path d="M1710 2216 c-19 -7 -71 -34 -114 -60 -418 -248 -823 -795 -922 -1248
-23 -104 -23 -240 0 -305 26 -77 94 -163 166 -211 116 -78 -17 -72 1727 -72
1406 0 1566 1 1610 16 131 44 235 146 280 277 18 50 19 180 3 268 -75 413
-443 947 -840 1218 -216 148 -308 160 -364 47 -37 -74 -5 -133 101 -189 104
-54 203 -128 308 -229 288 -275 504 -646 544 -932 10 -70 9 -83 -8 -121 -13
-29 -34 -53 -62 -72 l-43 -28 -1530 0 c-1439 0 -1533 1 -1563 17 -38 21 -79
72 -88 110 -4 14 -2 59 4 100 33 213 171 493 364 733 139 173 360 360 520 441
53 26 80 67 80 120 0 92 -86 152 -173 120z"/>
</g>
</svg>
