<?xml version="1.0" standalone="no"?>
<!DOCTYPE svg PUBLIC "-//W3C//DTD SVG 20010904//EN"
 "http://www.w3.org/TR/2001/REC-SVG-20010904/DTD/svg10.dtd">
<svg version="1.0" xmlns="http://www.w3.org/2000/svg"
 width="512.000000pt" height="512.000000pt" viewBox="0 0 512.000000 512.000000"
 preserveAspectRatio="xMidYMid meet">

<g transform="translate(0.000000,512.000000) scale(0.100000,-0.100000)"
fill="#000000" stroke="none">
<path d="M565 4791 c-93 -24 -173 -90 -215 -176 -34 -69 -35 -198 -2 -265 34
-71 75 -114 143 -150 62 -33 65 -33 243 -41 100 -5 224 -13 276 -19 1458 -159
2656 -1189 3035 -2610 62 -233 100 -497 114 -795 7 -152 12 -187 30 -225 33
-70 74 -113 143 -151 58 -31 70 -34 148 -34 78 0 90 3 148 34 112 61 162 145
170 288 10 192 -32 582 -93 868 -135 628 -417 1219 -820 1723 -691 862 -1689
1411 -2795 1537 -158 18 -482 28 -525 16z"/>
<path d="M565 3511 c-90 -22 -173 -90 -215 -176 -34 -69 -35 -198 -2 -265 34
-71 75 -114 142 -149 59 -32 69 -34 213 -42 202 -12 344 -33 505 -75 779 -203
1393 -817 1596 -1594 42 -163 63 -305 75 -505 7 -120 13 -159 30 -195 33 -70
74 -113 143 -151 58 -31 70 -34 148 -34 78 0 90 3 148 34 107 58 161 144 169
271 7 96 -12 338 -38 490 -205 1206 -1160 2160 -2364 2359 -216 36 -471 51
-550 32z"/>
<path d="M565 2231 c-92 -24 -173 -90 -215 -176 -34 -69 -35 -198 -2 -265 34
-71 75 -114 141 -149 54 -29 75 -33 181 -41 281 -22 466 -104 650 -290 178
-180 259 -364 280 -639 13 -173 54 -248 172 -312 58 -31 70 -34 148 -34 78 0
90 3 148 34 146 79 189 197 162 443 -77 708 -596 1275 -1290 1408 -113 22
-327 34 -375 21z"/>
<path d="M417 830 c-75 -29 -132 -82 -169 -157 -27 -56 -32 -77 -32 -137 1
-284 342 -428 541 -229 66 66 88 123 88 228 0 78 -4 97 -27 141 -36 68 -113
136 -178 157 -68 22 -162 21 -223 -3z"/>
</g>
</svg>
